<?xml version="1.0" ?>
<svg xmlns="http://www.w3.org/2000/svg" version="1.1" width="512" height="512" viewBox="0 0 512 512">
  <defs/>
  <g>
    <path d="M 432.85339355 304.93020630 C 425.37338257 305.78332520 417.68234253 305.48446655 409.80499268 304.86611938 C 401.65939331 304.46609497 393.23117065 304.32540894 384.47760010 304.35604858 C 375.45028687 304.43469238 366.21350098 304.56771851 356.71624756 304.76144409 C 346.85610962 305.00997925 336.60308838 305.26406860 326.05117798 305.47396851 C 315.19799805 305.70260620 303.90722656 305.58691406 292.17898560 305.49417114 C 280.10174561 305.55136108 267.65725708 305.55285645 254.81230164 305.54782104 C 241.69660950 305.55874634 228.27145386 305.64392090 214.51432800 305.51269531 C 200.63946533 305.45269775 186.69714355 305.70458984 172.70881653 305.40545654 C 158.66876221 305.00830078 144.65776062 304.54010010 130.92797852 304.06436157 C 117.70419312 303.82611084 105.13057709 303.84140015 93.33053589 304.14669800 C 82.41981506 304.98754883 72.68698120 305.66629028 64.34722900 304.98190308 C 57.27584839 304.42315674 52.15594482 301.81176758 48.35668182 296.84701538 C 44.87278748 291.38143921 43.35086060 284.32772827 42.53160858 275.97644043 C 42.80095673 266.77410889 43.82284164 257.19650269 45.59926987 247.67933655 C 48.89069366 239.28160095 53.54653931 231.74894714 59.77132416 225.75624084 C 67.54868317 221.58862305 76.93972015 219.02624512 87.07182312 216.83122253 C 97.41036987 214.22698975 107.86801910 212.69866943 117.74265289 210.84391785 C 126.35234833 209.92945862 133.59289551 207.92941284 140.67686462 203.25804138 C 149.17956543 198.59756470 158.51315308 194.03312683 168.72445679 190.09695435 C 179.13575745 185.74447632 189.77644348 181.73603821 200.99226379 178.75415039 C 212.40652466 175.87060547 224.09379578 173.65548706 236.15254211 172.80027771 C 248.32775879 171.56320190 260.69131470 171.58018494 273.08300781 171.81594849 C 285.38867188 171.87776184 297.26040649 172.66693115 308.81564331 173.80578613 C 319.91305542 174.68319702 330.42037964 176.12268066 340.13522339 178.10040283 C 349.40637207 178.66177368 357.27133179 181.49078369 365.24887085 187.00140381 C 374.67037964 192.45681763 384.01583862 198.92527771 395.02731323 202.93759155 C 405.60409546 209.69380188 415.86581421 218.00715637 425.82113647 226.96078491 C 435.22058105 235.90063477 443.57485962 244.42224121 449.96130371 252.52343750 C 453.54824829 260.35751343 453.66555786 269.10833740 452.49304199 278.76034546 C 450.84396362 289.03875732 449.04003906 299.78771973 432.85339355 304.93020630" stroke-width="0.76800627" fill="rgb(4, 3, 4)" opacity="1.0" stroke="rgb(1, 3, 0)" stroke-opacity="0.47100165" stroke-linecap="round" stroke-linejoin="round"/>
    <path d="M 160.87011719 298.17437744 C 155.17315674 298.15725708 149.43232727 298.14938354 143.74465942 298.19915771 C 138.10014343 298.25720215 132.40307617 298.25546265 126.68203735 298.26425171 C 120.97875977 298.34951782 115.36424255 298.42703247 109.81596375 298.43637085 C 104.31335449 298.48007202 98.91128540 298.52249146 93.68558502 298.49490356 C 88.62391663 298.47436523 83.77871704 298.45776367 79.15436554 298.43045044 C 74.89624023 298.40609741 70.98349762 297.93954468 67.41508484 296.95330811 C 64.18555450 295.31869507 61.31713486 293.11077881 58.88166428 290.49166870 C 56.87260818 287.55773926 55.20462799 284.27139282 53.84666443 280.61932373 C 52.85116959 276.73059082 52.28026581 272.69104004 52.16459656 268.51953125 C 52.44965363 264.29159546 53.09050369 260.07073975 54.07159042 255.89379883 C 55.39031219 251.75758362 57.05341339 247.65010071 59.13288879 243.66847229 C 61.60640717 239.95758057 64.46174622 236.61132812 67.68495941 233.58972168 C 71.19463348 230.84687805 75.04062653 228.40408325 79.23329163 226.29632568 C 83.61177826 224.35177612 88.33725739 223.21867371 93.33805084 222.18772888 C 98.43421173 220.98870850 103.32106781 219.96980286 108.40174866 219.14622498 C 113.36885834 218.06887817 118.34178162 217.20646667 123.18952942 216.30624390 C 127.80355072 215.51182556 131.97967529 214.41004944 135.84764099 212.52827454 C 139.63175964 210.63778687 143.38931274 208.98190308 147.24259949 207.83351135 C 151.15956116 207.06607056 155.00453186 206.82273865 158.81446838 207.20649719 C 162.54571533 208.00965881 166.18832397 209.20501709 169.72448730 210.86482239 C 173.04858398 212.90652466 176.19148254 215.32698059 179.09254456 218.07632446 C 181.81788635 221.08146667 184.41525269 224.26634216 186.75430298 227.66255188 C 188.82861328 231.26266479 190.61401367 235.00315857 192.17062378 238.82286072 C 193.50212097 242.71841431 194.52673340 246.70909119 195.32522583 250.71697998 C 195.84674072 254.65211487 196.13900757 258.48162842 196.20890808 262.25915527 C 196.09060669 266.00054932 195.84880066 269.59576416 195.41412354 272.97042847 C 194.82110596 276.18011475 194.09687805 279.20895386 193.28108215 282.05740356 C 192.43011475 284.73532104 191.46629333 287.18441772 190.43307495 289.41198730 C 189.36273193 291.56970215 188.24374390 293.67324829 187.11933899 295.65307617 C 185.94548035 297.57928467 184.73072815 299.53381348 160.87011719 298.17437744" stroke-width="0.91801620" fill="rgb(240, 56, 4)" opacity="1.0" stroke="rgb(138, 35, 24)" stroke-opacity="0.8157975" stroke-linecap="round" stroke-linejoin="round"/>
    <path d="M 255.02664185 206.98266602 C 255.03115845 206.95570374 255.02371216 206.98223877 255.03736877 206.95890808 C 255.02168274 206.96794128 255.03172302 206.97676086 255.03663635 206.95635986 C 255.02282715 206.97242737 255.02864075 206.95822144 255.03822327 206.96978760 C 255.02487183 206.95971680 255.03164673 206.95983887 255.03495789 206.97116089 C 255.03164673 206.95376587 255.03005981 206.96949768 255.03150940 206.95910645 C 255.03669739 206.95892334 255.03144836 206.96844482 255.02772522 206.95283508 C 255.03918457 206.97082520 255.03286743 206.95732117 255.03042603 206.96098328 C 255.03971863 206.96926880 255.03311157 206.95993042 255.03393555 206.96356201 C 255.03681946 206.96630859 255.03599548 206.96054077 255.03828430 206.96366882 C 255.03338623 206.96728516 255.04093933 206.96145630 255.02664185 206.98266602" stroke-width="0.44217369" fill="rgb(0, 255, 255)" opacity="1.0" stroke="rgb(106, 245, 255)" stroke-opacity="1.0" stroke-linecap="round" stroke-linejoin="round"/>
    <path d="M 440.43228149 291.17492676 C 437.98062134 293.74838257 435.20159912 295.71850586 431.83639526 296.99951172 C 428.05093384 297.68441772 423.89779663 297.98843384 419.33972168 297.81161499 C 414.38241577 297.75259399 408.98147583 297.70373535 403.23870850 297.73333740 C 397.19717407 297.78381348 390.96093750 297.76525879 384.59762573 297.69622803 C 378.01733398 297.60882568 371.35296631 297.53866577 364.68728638 297.51391602 C 358.01196289 297.50250244 351.41320801 297.44985962 344.99459839 297.33871460 C 338.80322266 297.23828125 332.83706665 297.21838379 327.14022827 297.34866333 C 321.87707520 297.59265137 317.21542358 297.78591919 313.25216675 297.88632202 C 310.16226196 297.95272827 307.86138916 296.96966553 306.25366211 295.19177246 C 305.39086914 292.92242432 305.18847656 290.25671387 305.54455566 287.21707153 C 306.54141235 283.81130981 308.15093994 280.11294556 310.25894165 276.18328857 C 312.83145142 272.03060913 315.90670776 267.70883179 319.42025757 263.28823853 C 323.22729492 258.72799683 327.16674805 254.04223633 331.10256958 249.20365906 C 334.92098999 244.25164795 338.47943115 239.27763367 341.70468140 234.31544495 C 344.48950195 229.30952454 346.64672852 224.16984558 348.24169922 218.94335938 C 348.80276489 213.80158997 348.70309448 208.94522095 348.19726562 204.31517029 C 347.42547607 199.84756470 346.46118164 195.71954346 345.65213013 192.24281311 C 345.34588623 189.52165222 345.49588013 187.57579041 346.34890747 186.69654846 C 348.40087891 186.86360168 351.70974731 187.77174377 355.49694824 189.53788757 C 359.82189941 192.20808411 364.84979248 195.13337708 370.09213257 198.67855835 C 375.82830811 202.14144897 381.88571167 205.45327759 388.28781128 208.18826294 C 394.74099731 210.34857178 401.31045532 211.52081299 407.89907837 212.61483765 C 414.20312500 213.94007874 420.20855713 214.91899109 425.59973145 215.83108521 C 430.30157471 216.79429626 434.19860840 217.74571228 436.80975342 218.74908447 C 437.89242554 220.68383789 438.06994629 223.61280823 438.11053467 227.23907471 C 438.44143677 231.38775635 438.23638916 235.80546570 438.41821289 240.40206909 C 438.73251343 245.01750183 439.11761475 249.23385620 439.04907227 252.67007446 C 440.10134888 254.86561584 442.13180542 256.04830933 443.99182129 257.80105591 C 444.50888062 260.85769653 444.95596313 264.76058960 445.03875732 269.05404663 C 445.05868530 273.75726318 445.40390015 279.11972046 440.43228149 291.17492676" stroke-width="1.42244911" fill="rgb(244, 57, 2)" opacity="1.0" stroke="rgb(248, 81, 31)" stroke-opacity="0.7727824" stroke-linecap="round" stroke-linejoin="round"/>
    <path d="M 105.47437286 347.11621094 C 102.98572540 345.38687134 100.30910492 343.81130981 97.59300232 342.02416992 C 94.97892761 339.65042114 92.31009674 337.15765381 90.19001770 334.15988159 C 87.77384186 331.40658569 85.68764496 328.36892700 84.02722931 325.08294678 C 82.43701935 321.59994507 80.92949677 318.47149658 80.00182343 315.12075806 C 78.91136169 312.08709717 78.39980316 308.89587402 78.21849060 305.74346924 C 78.63018799 302.52502441 79.22978210 299.19363403 79.76110077 295.71066284 C 80.21239471 292.33129883 80.97221375 288.80078125 82.07296753 285.42495728 C 83.37847137 282.13513184 85.01587677 278.92852783 87.00797272 275.98535156 C 89.19416809 273.06372070 91.29758453 270.26651001 93.79193878 267.68148804 C 96.27660370 265.25683594 99.02539825 263.25152588 102.09066010 261.40225220 C 105.04427338 259.68301392 108.21805573 258.19125366 111.45976257 256.81961060 C 114.87602997 255.90122986 118.40745544 255.14736938 121.98940277 254.58497620 C 125.63198090 254.27644348 129.25108337 254.22583008 132.77122498 254.40353394 C 136.20150757 254.66719055 139.70271301 255.42233276 143.04049683 256.40533447 C 146.20429993 257.59063721 149.20721436 259.05444336 152.07704163 260.67593384 C 154.88079834 262.30993652 157.49172974 264.25183105 159.90170288 266.26522827 C 162.12803650 268.46072388 164.26921082 270.74984741 166.14683533 273.25881958 C 167.92140198 275.76907349 169.75114441 278.32968140 171.13577271 281.10601807 C 172.40119934 284.03094482 173.69442749 286.99282837 174.61392212 290.10464478 C 175.52470398 293.31756592 176.09289551 296.61337280 176.31190491 299.98928833 C 176.66079712 303.34069824 176.71659851 306.71148682 176.41735840 310.06979370 C 175.83076477 313.42098999 174.90818787 316.68276978 173.61729431 319.92230225 C 172.51881409 323.26373291 170.80381775 326.29907227 168.91133118 329.40066528 C 166.87730408 332.43164062 164.53572083 335.18789673 162.14520264 337.86828613 C 159.61730957 340.27114868 157.14035034 342.54132080 154.41606140 344.40371704 C 151.85812378 346.23956299 149.21676636 347.76635742 146.52850342 348.87335205 C 143.99223328 350.18264771 141.31011963 351.04812622 138.43014526 351.71746826 C 135.58007812 352.11788940 132.50666809 352.45281982 129.44712830 352.87982178 C 126.58832550 352.66094971 123.64730072 352.33486938 120.65025330 351.97619629 C 117.64673615 351.72283936 114.72527313 351.26797485 105.47437286 347.11621094" stroke-width="0.74813664" fill="rgb(19, 14, 11)" opacity="1.0" stroke="rgb(0, 3, 19)" stroke-opacity="0.45121643" stroke-linecap="round" stroke-linejoin="round"/>
    <path d="M 377.64157104 351.93032837 C 373.81179810 352.51849365 370.24288940 352.92208862 366.52420044 352.66012573 C 363.01452637 352.66540527 359.62655640 352.21530151 356.40274048 351.40270996 C 353.20999146 350.64978027 350.12823486 349.38299561 347.14337158 348.17333984 C 344.29199219 346.69775391 341.64651489 345.05325317 339.08773804 343.37161255 C 336.55413818 341.58853149 334.38757324 339.46096802 332.28564453 337.30557251 C 330.23944092 335.22982788 328.49188232 332.90225220 326.83666992 330.43164062 C 325.22760010 327.75454712 323.60089111 325.05056763 322.07553101 322.10025024 C 320.99044800 318.97494507 319.68127441 315.72073364 318.81604004 312.31314087 C 318.32241821 308.66723633 317.80838013 304.90716553 317.59350586 301.10574341 C 317.84979248 297.36196899 318.63504028 293.73843384 319.53848267 290.12078857 C 320.69989014 286.60134888 322.24160767 283.33279419 323.90554810 279.91778564 C 325.79714966 276.83358765 327.95852661 274.08441162 330.27774048 271.33270264 C 332.53814697 268.64266968 334.95602417 266.28378296 337.75732422 264.21453857 C 340.57458496 262.12408447 343.46566772 260.31304932 346.62225342 258.72326660 C 349.71936035 257.17004395 352.93872070 256.02917480 356.28494263 255.27970886 C 359.59384155 254.60565186 362.90866089 254.04133606 366.18270874 253.84286499 C 369.40780640 253.67106628 372.51712036 254.11091614 375.59643555 254.44621277 C 378.72314453 254.89378357 381.89398193 255.60339355 384.75564575 256.66448975 C 387.67828369 257.81710815 390.71316528 259.23272705 393.63079834 260.77499390 C 396.38415527 262.67388916 399.11672974 264.80783081 401.79348755 267.09912109 C 404.43032837 269.52484131 406.76144409 272.25228882 408.87548828 275.20986938 C 411.03161621 278.13677979 412.81832886 281.26312256 414.27093506 284.56811523 C 415.77761841 287.80880737 416.70758057 291.19982910 417.37884521 294.80770874 C 417.77490234 298.22991943 417.93170166 301.66894531 418.24148560 305.12112427 C 418.07312012 308.28808594 417.23098755 311.42687988 416.37551880 314.62100220 C 415.38473511 317.83999634 414.12350464 320.99588013 412.70913696 324.00204468 C 411.15048218 326.88577271 409.65994263 329.63531494 407.62496948 332.04965210 C 405.56048584 334.52526855 403.47857666 337.00924683 401.09399414 339.17825317 C 398.74349976 341.37905884 396.25955200 343.50802612 393.46255493 345.36663818 C 390.37634277 347.10748291 387.33523560 349.13476562 377.64157104 351.93032837" stroke-width="0.74628437" fill="rgb(20, 15, 12)" opacity="1.0" stroke="rgb(7, 8, 24)" stroke-opacity="0.44727296" stroke-linecap="round" stroke-linejoin="round"/>
    <path d="M 280.46313477 235.04977417 C 277.14010620 235.76170349 273.85986328 236.47615051 270.67477417 237.20220947 C 267.49862671 237.99705505 264.27258301 238.91009521 260.93811035 239.79759216 C 257.50332642 240.57902527 254.03419495 241.32363892 250.52104187 242.10891724 C 246.87585449 242.89233398 243.16351318 243.65240479 239.45906067 244.43214417 C 235.67059326 245.21728516 231.73374939 245.92446899 227.69871521 246.51864624 C 223.66722107 246.99826050 219.60704041 247.39993286 215.40672302 247.75444031 C 211.07128906 247.97036743 206.71621704 247.98814392 202.46182251 247.79847717 C 198.37835693 247.34127808 194.35308838 246.60681152 190.37519836 245.59466553 C 186.56933594 244.25364685 183.00674438 242.64045715 179.62535095 240.92417908 C 176.36601257 239.17271423 173.35568237 237.52320862 170.80892944 236.21380615 C 168.98309326 235.22210693 168.19033813 233.30528259 168.02252197 230.77246094 C 167.47097778 227.72244263 166.84104919 224.42321777 166.32957458 220.98135376 C 166.00354004 217.45675659 165.84559631 214.00505066 165.93751526 210.69694519 C 166.39508057 207.56701660 167.22399902 204.75418091 168.46675110 202.36392212 C 170.32812500 200.45492554 172.48997498 198.82226562 174.82440186 197.24806213 C 177.30961609 195.68669128 179.94145203 194.22846985 182.71731567 192.95144653 C 185.62724304 191.74696350 188.60888672 190.60661316 191.63369751 189.54490662 C 194.70690918 188.58561707 197.80821228 187.65875244 200.97621155 186.77958679 C 204.23420715 185.97195435 207.54092407 185.24276733 210.86425781 184.50163269 C 214.15521240 183.72320557 217.45643616 182.97389221 220.82002258 182.17671204 C 224.17329407 181.28692627 227.54690552 180.57104492 230.96112061 180.00178528 C 234.41307068 179.25201416 237.86198425 178.46615601 241.19921875 177.82266235 C 244.57791138 177.59111023 247.99540710 177.66484070 251.47030640 178.15982056 C 254.83622742 178.30581665 258.08496094 178.09054565 261.11209106 177.96116638 C 263.96914673 178.56547546 266.63107300 179.63825989 269.14862061 180.84396362 C 271.49203491 182.18756104 273.45953369 183.82458496 275.13491821 185.83847046 C 276.61074829 188.24768066 277.82974243 190.93208313 278.76162720 193.84098816 C 279.51736450 196.88754272 280.08142090 200.01618958 280.50961304 203.27293396 C 280.89984131 206.65057373 281.23486328 210.10688782 281.52194214 213.59924316 C 281.85388184 217.13609314 282.19949341 220.70327759 280.46313477 235.04977417" stroke-width="0.21842010" fill="rgb(6, 6, 8)" opacity="1.0" stroke="rgb(35, 68, 100)" stroke-opacity="0.44375452" stroke-linecap="round" stroke-linejoin="round"/>
    <path d="M 365.04718018 220.48333740 C 358.90908813 221.56271362 353.08886719 221.85562134 348.21926880 221.62922668 C 344.90359497 219.20793152 341.00677490 218.96902466 335.65484619 220.44306946 C 329.66134644 220.33503723 323.07894897 221.08334351 316.13998413 221.64570618 C 309.29763794 222.53059387 302.42831421 222.55609131 296.42767334 223.33479309 C 290.99179077 223.99128723 286.58834839 224.47061157 282.93447876 224.59989929 C 280.13327026 224.76870728 278.43057251 225.16656494 277.74447632 224.76312256 C 277.61666870 223.33787537 277.85430908 220.83665466 277.79034424 217.64273071 C 277.88714600 214.01400757 277.60607910 210.01945496 277.81515503 205.58885193 C 277.81643677 200.99688721 277.80499268 196.46461487 277.55334473 192.06886292 C 277.88601685 187.89079285 277.31924438 184.19332886 277.86993408 181.21118164 C 277.12536621 179.39498901 277.50970459 178.73435974 279.47640991 178.23365784 C 282.37326050 178.35401917 286.00091553 178.59507751 290.09222412 178.73393250 C 294.38049316 178.41198730 298.87466431 179.31048584 303.64285278 179.51664734 C 308.76733398 179.69105530 313.99868774 180.34829712 319.16265869 181.38638306 C 324.19058228 181.77839661 329.02984619 182.66175842 333.46286011 183.44465637 C 337.24774170 184.10716248 340.02920532 184.05436707 340.96630859 185.38745117 C 341.58609009 189.33323669 342.35665894 193.71740723 342.54940796 196.91728210 C 344.82553101 197.19406128 348.39843750 195.82217407 352.25411987 195.10958862 C 354.57003784 197.79983521 357.19146729 202.21072388 360.74435425 207.31762695 C 364.73620605 213.06687927 369.42407227 218.86523438 365.04718018 220.48333740" stroke-width="2.00000000" fill="rgb(109, 213, 243)" opacity="1.0" stroke="rgb(3, 13, 18)" stroke-opacity="1.0" stroke-linecap="round" stroke-linejoin="round"/>
    <path d="M 82.60041809 253.13529968 C 79.82247162 255.35099792 76.93733215 257.38784790 74.05187225 259.43124390 C 71.31349182 261.55728149 68.71426392 263.73867798 66.12812805 265.80688477 C 63.48262787 267.75506592 60.84687042 269.48776245 58.33551025 270.95959473 C 55.99340057 272.25686646 53.78867340 273.49517822 51.65955353 274.69668579 C 49.60681152 275.71267700 47.78067017 276.43728638 46.24127960 276.78558350 C 44.94662857 276.87741089 43.77778625 276.67565918 42.89912415 276.03842163 C 42.35912323 274.90893555 42.09170151 273.11053467 41.74337006 271.23641968 C 41.88076782 268.76821899 41.85424423 266.18066406 42.03720474 263.22525024 C 42.34460449 259.97973633 42.79291153 256.74649048 43.99818420 253.71492004 C 44.49552917 250.39346313 45.10364532 247.17872620 46.22815704 244.09889221 C 46.90367508 241.18994141 48.22563553 238.38462830 49.65882492 235.73367310 C 51.04821396 233.18940735 52.73511887 231.00192261 54.67260742 228.98852539 C 56.57887268 227.34214783 58.48684692 226.06050110 60.34251404 225.06974792 C 62.17050552 224.16923523 64.01956940 223.48574829 65.67721558 223.27313232 C 67.26350403 223.96354675 68.90763092 224.97312927 70.74098206 225.91534424 C 72.72710419 226.67379761 74.74291992 227.12123108 76.61643219 227.23445129 C 78.36120605 227.36149597 80.15306854 227.16433716 81.91557312 227.04147339 C 83.54277802 227.32366943 85.21774292 227.50462341 86.90040588 227.98530579 C 88.57337189 228.88293457 90.16420746 229.96981812 91.36087036 231.54705811 C 92.12810516 234.50532532 93.40848541 237.99430847 82.60041809 253.13529968" stroke-width="0.78247398" fill="rgb(9, 4, 5)" opacity="1.0" stroke="rgb(23, 43, 39)" stroke-opacity="0.46904376" stroke-linecap="round" stroke-linejoin="round"/>
    <path d="M 83.17730713 261.15426636 C 80.04891968 265.84057617 77.55416107 270.50201416 75.52532959 275.31362915 C 73.72601318 279.85095215 72.69577789 284.22824097 71.90930176 288.07458496 C 71.45290375 291.29678345 71.34870911 293.96615601 71.20019531 296.08038330 C 71.32186890 297.58404541 71.26809692 298.47457886 70.83531189 298.84112549 C 69.75333405 298.75524902 67.89678955 298.61935425 65.73627472 298.42938232 C 63.28931427 298.41766357 60.84117889 297.97216797 58.56798553 297.59390259 C 56.66594315 296.54400635 55.12154770 294.98120117 53.72106934 292.79620361 C 52.49361038 290.08358765 51.36376572 287.04473877 50.39801788 283.76412964 C 50.09185791 280.66848755 49.55415344 277.75579834 48.68494415 275.09478760 C 48.63354111 272.49719238 48.77590561 270.11120605 48.77779007 267.80130005 C 48.68459702 265.69467163 48.87159729 264.02014160 49.27543259 262.74121094 C 49.25322723 261.69146729 49.13048935 261.02401733 49.04368591 260.59902954 C 49.53907776 260.58590698 50.04234314 261.05758667 50.88466644 261.43383789 C 52.12117386 261.35620117 53.77790451 261.57055664 55.73279953 261.80313110 C 57.68887711 261.69937134 59.93352509 261.59967041 62.14284134 261.90011597 C 64.47556305 261.78393555 66.88246918 261.08386230 69.46121979 260.67013550 C 71.84403229 260.32116699 74.19007874 259.68750000 76.53853607 259.24606323 C 78.16809082 257.84344482 79.91068268 256.66146851 81.41721344 256.29000854 C 82.70179749 257.21170044 84.35671997 257.85607910 86.11609650 257.81555176 C 87.08425903 257.37121582 87.44328308 256.61630249 83.17730713 261.15426636" stroke-width="2.00000000" fill="rgb(246, 66, 4)" opacity="1.0" stroke="rgb(33, 5, 13)" stroke-opacity="0.7914344" stroke-linecap="round" stroke-linejoin="round"/>
    <path d="M 445.97354126 256.81768799 C 444.21929932 255.25521851 442.93722534 253.41375732 442.07214355 251.37178040 C 441.52487183 249.17903137 441.20715332 246.78746033 440.96978760 244.35713196 C 440.47952271 241.92680359 440.00436401 239.18411255 439.85653687 236.30024719 C 439.93960571 233.60726929 439.73937988 230.85778809 439.66281128 228.18551636 C 439.43798828 225.39862061 439.32601929 222.90458679 439.21701050 220.72929382 C 439.01693726 219.00733948 438.32629395 217.63885498 437.29803467 216.63014221 C 435.64843750 216.11946106 433.63815308 215.68550110 431.37994385 215.33486938 C 428.87603760 214.79740906 426.23324585 214.21209717 423.28170776 213.72396851 C 420.15795898 213.49327087 416.97976685 212.86613464 413.67352295 212.32351685 C 410.37207031 211.80918884 407.22970581 210.90049744 404.28106689 209.74804688 C 401.67230225 208.30651855 399.61911011 206.84297180 397.88510132 205.56535339 C 396.56988525 204.46427917 395.88217163 203.66334534 396.00909424 203.32991028 C 396.88031006 203.38586426 398.53924561 203.61174011 400.87170410 204.36602783 C 403.67630005 204.92892456 406.77246094 205.61749268 410.05947876 205.86224365 C 413.27764893 206.54975891 416.70800781 207.06259155 420.22164917 207.12051392 C 423.78900146 207.90463257 427.51290894 208.25422668 431.36682129 208.59663391 C 434.93106079 209.18887329 438.12222290 210.12554932 440.65814209 210.83691406 C 442.48806763 211.63992310 443.67404175 212.96449280 444.54812622 214.29611206 C 444.83145142 216.01846313 445.15209961 217.56800842 445.37619019 219.01834106 C 445.50427246 220.52317810 445.35742188 222.23707581 445.97354126 256.81768799" stroke-width="0.78403741" fill="rgb(6, 2, 5)" opacity="1.0" stroke="rgb(36, 3, 0)" stroke-opacity="0.5184733" stroke-linecap="round" stroke-linejoin="round"/>
    <path d="M 436.00994873 220.20535278 C 436.38879395 220.97717285 436.71755981 221.56340027 436.88989258 222.26925659 C 436.56579590 223.12387085 436.54312134 224.08210754 436.55685425 225.23439026 C 436.56256104 226.67584229 436.79287720 228.27868652 436.89099121 229.89364624 C 436.93563843 231.70050049 437.29101562 233.47627258 437.39614868 235.34922791 C 437.39779663 237.51734924 437.51959229 239.67028809 437.67779541 241.80543518 C 437.74435425 243.88626099 437.55853271 245.81416321 437.56533813 247.36500549 C 437.93756104 248.62510681 437.84677124 249.52589417 437.67871094 250.24938965 C 437.95730591 250.76062012 438.66363525 250.96260071 439.56530762 251.09823608 C 440.15747070 251.21670532 440.36587524 251.56170654 440.45233154 252.25929260 C 440.90197754 253.15261841 441.56848145 253.88865662 442.29129028 254.50889587 C 442.90850830 254.97724915 443.03115845 255.32276917 442.71295166 255.60739136 C 441.93530273 255.74369812 440.65631104 255.82305908 438.96612549 255.94152832 C 437.05291748 256.23837280 434.98019409 256.35409546 432.58847046 256.18563843 C 429.80572510 255.60881042 426.98483276 254.99731445 424.47229004 253.91899109 C 422.17288208 252.67370605 420.20419312 251.05114746 418.74176025 249.39788818 C 417.59185791 247.69607544 416.93023682 245.77273560 416.57119751 243.60263062 C 415.84585571 241.62565613 415.64086914 239.52038574 415.88537598 237.18063354 C 416.03100586 234.83303833 416.46115112 232.62796021 417.10598755 230.48365784 C 417.93621826 228.41348267 419.04333496 226.41671753 420.71878052 224.60728455 C 422.93051147 222.79020691 425.21459961 220.75094604 436.00994873 220.20535278" stroke-width="1.37762713" fill="rgb(82, 6, 8)" opacity="1.0" stroke="rgb(110, 227, 255)" stroke-opacity="0.13485971" stroke-linecap="round" stroke-linejoin="round"/>
    <path d="M 273.04745483 252.33769226 C 273.04180908 252.33552551 273.05123901 252.33709717 273.04360962 252.33541870 C 273.04397583 252.33383179 273.05776978 252.34024048 273.04690552 252.33882141 C 273.04708862 252.33132935 273.05438232 252.34892273 273.05493164 252.32206726 C 273.04568481 252.33737183 273.05212402 252.34750366 273.06112671 252.32479858 C 273.04760742 252.33761597 273.05151367 252.34226990 273.06188965 252.32742310 C 273.04898071 252.33703613 273.04830933 252.34248352 273.06445312 252.32614136 C 273.04922485 252.33894348 273.05871582 252.33810425 273.04537964 252.32893372 C 273.05917358 252.33676147 273.05096436 252.33349609 273.04992676 252.33001709 C 273.05099487 252.33856201 273.05593872 252.33073425 273.04562378 252.32722473 C 273.05212402 252.33990479 273.04965210 252.32392883 273.04745483 252.33769226" stroke-width="1.23907244" fill="rgb(255, 40, 59)" opacity="1.0" stroke="rgb(0, 0, 0)" stroke-opacity="1.0" stroke-linecap="round" stroke-linejoin="round"/>
    <path d="M 175.38951111 208.51271057 C 175.15217590 209.68656921 174.88739014 210.90159607 174.59597778 212.11302185 C 174.27081299 213.32089233 173.95396423 214.55770874 173.70016479 215.83206177 C 173.44114685 217.07141113 173.07203674 218.18988037 172.54240417 219.26029968 C 172.34880066 220.42375183 172.34616089 221.47048950 172.48014832 222.48194885 C 172.64839172 223.60618591 172.83943176 224.82957458 172.95587158 226.02790833 C 172.93582153 227.08262634 172.69818115 228.00390625 172.22590637 228.81896973 C 171.56278992 229.50480652 170.75437927 230.04843140 169.67532349 230.23849487 C 168.34980774 230.00813293 166.88356018 229.73385620 165.12609863 229.45877075 C 163.19325256 228.93560791 161.33998108 228.15078735 159.42446899 227.79316711 C 157.41690063 227.30592346 155.42655945 226.60362244 153.33718872 226.19226074 C 151.25865173 225.51826477 149.31341553 224.80181885 147.59300232 224.07604980 C 146.12031555 223.03346252 144.89042664 222.09477234 144.09991455 221.24620056 C 144.02203369 220.42614746 144.27380371 219.41722107 144.96707153 218.51625061 C 146.05061340 217.89244080 147.32926941 217.27156067 148.81617737 216.82354736 C 150.10154724 216.01338196 151.27589417 214.73512268 152.32580566 213.30322266 C 153.61590576 212.10246277 154.90286255 210.96412659 156.12120056 209.86793518 C 157.31213379 208.92213440 158.71905518 208.41519165 160.29808044 208.17871094 C 161.73927307 207.90577698 163.13088989 207.77963257 164.40597534 207.50668335 C 165.48371887 207.54991150 166.60949707 207.87361145 167.86251831 208.53927612 C 169.11596680 209.36199951 170.31315613 210.26969910 175.38951111 208.51271057" stroke-width="0.81272858" fill="rgb(12, 3, 6)" opacity="1.0" stroke="rgb(21, 0, 36)" stroke-opacity="0.44171315" stroke-linecap="round" stroke-linejoin="round"/>
    <path d="M 263.05383301 178.38421631 C 263.23367310 180.87773132 262.95007324 183.56808472 262.79190063 186.48223877 C 262.67837524 189.37239075 262.36996460 192.42990112 262.07562256 195.66865540 C 261.51904297 198.96560669 261.54403687 202.57214355 261.20474243 206.26356506 C 260.60186768 210.12881470 260.27523804 214.22494507 259.96847534 217.94531250 C 259.81149292 221.11193848 259.65905762 223.77975464 259.24465942 225.57022095 C 257.40753174 225.92092896 254.25558472 225.91656494 250.02334595 226.08312988 C 244.75363159 226.48143005 238.67897034 226.82705688 232.06166077 227.25413513 C 225.19754028 227.72044373 218.13786316 227.88694763 211.16143799 228.50152588 C 204.35963440 228.81338501 197.93212891 229.23225403 191.96237183 229.67465210 C 186.26571655 229.91877747 181.43486023 230.25958252 177.55410767 231.03015137 C 174.38255310 231.25007629 172.18490601 231.40446472 171.18991089 231.55012512 C 171.02709961 230.78146362 171.52529907 229.33894348 172.20983887 227.12948608 C 172.55651855 224.50000000 172.78512573 221.61325073 172.91203308 218.65679932 C 173.56144714 215.96664429 173.36006165 213.34962463 172.78372192 211.04234314 C 171.90397644 209.55723572 170.56059265 208.54383850 169.60708618 206.99697876 C 169.42117310 204.30525208 169.57003784 201.37126160 170.20024109 198.83052063 C 171.91744995 197.15643311 174.48605347 195.97311401 177.63249207 194.39036560 C 181.46614075 192.62304688 186.08085632 190.99406433 191.34158325 189.03082275 C 197.11566162 186.95999146 203.96565247 185.33221436 211.52560425 183.51892090 C 219.82991028 182.01126099 228.40911865 179.29385376 263.05383301 178.38421631" stroke-width="0.82031697" fill="rgb(111, 214, 248)" opacity="1.0" stroke="rgb(87, 140, 159)" stroke-opacity="0.7964992" stroke-linecap="round" stroke-linejoin="round"/>
    <path d="M 92.31127167 253.18016052 C 95.59133148 250.02438354 99.46312714 247.64372253 103.63716125 245.79814148 C 108.06935883 244.84564209 112.29164886 243.49391174 116.59037781 242.37071228 C 120.81378937 242.43727112 125.17776489 241.84254456 129.96795654 241.10289001 C 135.54086304 241.69093323 141.25823975 242.82009888 146.62872314 244.71037292 C 151.25553894 246.71354675 154.97953796 249.25471497 157.95381165 251.60989380 C 160.06542969 253.44827271 161.44662476 254.49987793 161.87779236 254.60752869 C 161.49644470 253.73420715 159.87611389 252.41400146 157.10449219 250.82536316 C 153.67080688 248.59539795 149.32113647 246.53775024 144.12962341 244.71469116 C 138.29885864 242.90190125 131.81269836 241.86006165 124.73193359 241.41481018 C 117.07141876 241.50259399 109.26274872 241.41926575 92.31127167 253.18016052" stroke-width="1.22658372" fill="rgb(0, 0, 0)" opacity="1.0" stroke="rgb(57, 15, 13)" stroke-opacity="0.97412026" stroke-linecap="round" stroke-linejoin="round"/>
    <path d="M 319.90118408 248.66989136 C 326.13021851 247.18092346 332.42620850 245.74975586 338.75158691 244.43510437 C 344.88870239 242.89688110 350.96340942 241.43811035 357.05804443 240.42486572 C 363.12475586 239.81613159 369.00970459 239.44534302 374.81378174 239.96405029 C 380.54867554 240.86099243 386.12152100 242.34199524 391.51333618 244.54727173 C 396.76098633 247.14881897 401.68356323 250.30513000 405.91632080 254.31831360 C 410.18463135 258.36322021 413.76214600 262.94824219 416.66342163 267.93551636 C 419.29104614 273.01147461 421.47372437 278.08685303 422.85202026 283.00274658 C 423.80996704 288.06549072 424.41650391 292.42117310 424.80307007 295.87924194 C 424.97412109 298.42504883 424.58395386 299.85784912 423.89697266 299.98770142 C 423.15817261 298.68585205 422.91488647 296.22540283 422.84713745 292.86746216 C 422.31036377 288.72686768 421.17254639 284.06970215 419.57629395 279.05453491 C 417.84378052 273.89450073 415.31430054 268.96722412 412.01867676 264.34289551 C 408.81082153 259.65615845 405.02651978 255.69499207 400.40057373 252.59121704 C 395.81701660 249.28890991 390.80932617 246.67417908 385.53305054 244.85171509 C 380.26431274 243.11666870 374.81240845 242.47090149 369.36627197 242.11729431 C 364.28906250 242.23429871 359.29309082 242.69255066 354.44592285 243.21546936 C 349.71643066 244.27505493 345.15957642 245.57766724 340.84963989 247.52047729 C 336.45004272 250.00801086 332.35675049 252.86042786 328.44274902 256.17642212 C 325.01254272 259.87991333 322.07745361 263.81442261 319.23126221 267.76803589 C 315.94174194 271.35214233 312.56741333 274.74645996 319.90118408 248.66989136" stroke-width="0.84451753" fill="rgb(30, 5, 7)" opacity="1.0" stroke="rgb(0, 31, 60)" stroke-opacity="0.36673898" stroke-linecap="round" stroke-linejoin="round"/>
    <path d="M 452.90939331 493.95388794 C 437.15832520 491.81866455 421.35205078 491.77688599 405.22912598 492.08068848 C 389.19152832 491.65725708 373.38668823 491.69866943 357.39962769 494.02212524 C 340.51306152 493.97161865 322.94204712 493.96060181 304.86080933 494.01776123 C 286.26837158 494.00527954 267.08923340 493.91030884 247.55902100 494.05877686 C 228.21247864 496.78814697 208.34851074 498.18457031 188.45809937 498.00546265 C 168.94819641 497.97656250 150.25038147 497.82147217 133.02745056 498.10284424 C 117.72810364 497.01229858 103.65025330 496.53189087 90.48700714 497.23095703 C 77.83691406 499.12060547 66.30490112 500.60821533 56.48340607 501.22998047 C 48.56641388 500.73321533 43.21507263 498.90216064 40.88150024 496.52426147 C 41.42584229 494.83993530 45.20397568 492.89456177 51.34751129 491.31759644 C 59.62923431 489.73431396 69.29181671 488.56167603 80.85655212 488.95709229 C 94.46289062 488.93850708 109.78205872 488.90249634 126.36098480 489.00402832 C 143.80244446 488.95391846 161.79949951 488.95294189 180.26454163 488.99325562 C 198.87516785 488.83343506 217.16235352 489.70953369 234.98345947 488.01403809 C 253.02731323 487.90338135 270.90661621 488.04089355 288.47015381 488.03967285 C 305.63320923 489.63671875 322.55541992 490.42068481 339.43164062 489.93045044 C 356.52465820 490.03704834 373.62109375 489.93380737 390.61181641 490.00170898 C 407.30758667 490.00247192 423.52679443 489.98355103 439.13186646 490.07162476 C 454.01190186 489.95169067 468.02890015 489.45867920 481.66616821 491.65582275 C 495.73468018 493.32516479 509.91827393 494.41903687 452.90939331 493.95388794" stroke-width="2.00000000" fill="rgb(255, 255, 255)" opacity="1.0" stroke="rgb(255, 255, 255)" stroke-opacity="0.0" stroke-linecap="round" stroke-linejoin="round"/>
    <path d="M 298.20523071 297.13732910 C 293.31698608 297.68209839 288.42779541 298.12817383 283.56417847 298.39141846 C 278.68191528 298.51391602 273.84481812 298.59811401 269.05645752 298.50692749 C 264.16979980 298.85388184 259.07681274 298.67193604 253.68481445 298.54345703 C 247.80766296 298.83319092 241.56906128 298.90451050 235.19128418 298.61297607 C 228.68815613 298.67291260 222.29374695 298.74914551 216.10957336 298.71844482 C 210.10321045 298.61221313 204.37330627 298.66204834 199.12341309 298.72015381 C 194.46479797 298.72045898 190.50321960 298.78076172 187.27423096 298.56967163 C 184.87742615 298.76989746 183.62887573 298.56045532 183.58143616 297.16503906 C 183.87036133 294.31210327 183.26435852 290.34213257 182.22933960 285.63668823 C 181.14175415 280.23229980 178.90068054 275.01962280 176.38136292 269.66766357 C 173.63917542 264.68179321 169.93637085 260.51196289 166.16639709 256.67193604 C 162.72689819 253.10832214 159.50935364 250.45610046 156.57980347 248.77041626 C 155.05369568 247.07781982 154.94548035 245.07336426 155.71231079 242.83595276 C 157.73051453 240.89649963 160.81309509 239.17292786 164.63000488 237.75520325 C 169.25170898 236.94152832 174.32792664 236.40698242 179.78701782 236.26347351 C 185.37696838 235.57971191 191.00349426 235.28579712 196.77244568 235.26673889 C 202.38291931 234.37112427 208.07801819 234.47424316 213.52546692 233.81265259 C 218.97169495 233.55462646 224.07243347 233.32185364 228.83489990 233.27917480 C 232.97349548 232.46984863 236.66531372 232.21041870 240.19842529 232.35351562 C 243.72023010 232.21794128 247.04391479 231.77862549 250.28280640 231.49960327 C 253.44515991 231.51394653 256.19195557 231.42671204 258.53485107 230.72206116 C 261.08096313 230.79844666 263.13668823 230.88066101 265.04248047 230.51766968 C 266.91128540 230.24275208 268.34420776 230.41004944 269.25036621 230.85070801 C 269.44494629 231.67631531 269.49688721 232.77549744 269.64501953 234.10530090 C 269.44494629 235.58294678 269.50326538 237.25497437 269.64047241 239.06730652 C 269.58474731 240.88783264 269.61572266 242.77200317 269.53173828 244.72737122 C 269.54943848 246.72946167 269.88864136 248.72290039 270.46972656 250.54692078 C 271.23422241 252.14846802 272.26971436 253.62547302 273.60940552 255.17057800 C 274.97976685 256.83529663 276.23175049 258.55685425 277.55264282 260.28906250 C 278.85534668 262.00048828 280.07586670 263.70526123 298.20523071 297.13732910" stroke-width="2.00000000" fill="rgb(248, 56, 1)" opacity="1.0" stroke="rgb(46, 5, 7)" stroke-opacity="0.72890264" stroke-linecap="round" stroke-linejoin="round"/>
    <path d="M 313.91015625 274.86117554 C 312.25286865 279.43316650 310.98944092 283.98602295 309.71130371 288.24435425 C 309.17944336 292.43185425 308.63150024 295.88833618 308.35128784 298.33303833 C 305.97415161 298.93847656 302.02752686 298.83688354 297.10418701 298.48114014 C 291.93051147 298.68136597 286.82882690 298.74179077 281.76858521 298.46237183 C 277.12396240 298.58917236 273.27215576 298.69723511 270.83685303 298.38055420 C 270.39724731 296.28134155 270.72924805 292.36212158 271.09844971 287.09509277 C 271.30578613 280.56774902 271.42480469 273.22805786 271.52392578 265.50442505 C 271.69052124 257.74810791 271.63674927 250.25651550 271.90710449 243.35311890 C 272.10153198 237.51559448 272.39462280 233.15353394 272.26275635 230.55928040 C 273.70446777 230.10330200 276.55630493 229.91435242 280.24215698 229.63745117 C 284.69873047 229.60998535 289.85449219 228.84230042 295.58532715 228.46102905 C 301.55374146 227.87896729 307.60263062 227.48818970 313.56823730 227.34426880 C 318.90365601 226.65156555 323.81103516 226.21192932 328.38446045 226.34452820 C 332.44064331 225.55946350 336.19488525 225.33235168 339.64492798 225.26948547 C 342.84188843 224.45878601 345.54324341 224.50573730 347.36096191 225.64146423 C 347.85989380 227.55845642 347.94747925 230.05477905 347.53591919 232.82231140 C 347.17431641 235.75938416 346.87506104 238.64007568 346.22424316 241.28933716 C 344.60742188 242.86853027 342.01766968 243.90919495 338.99942017 245.22982788 C 335.98141479 247.48300171 332.51852417 249.78486633 329.17855835 252.81719971 C 325.62069702 255.98526001 321.46722412 258.83309937 313.91015625 274.86117554" stroke-width="2.00000000" fill="rgb(249, 58, 4)" opacity="1.0" stroke="rgb(40, 6, 10)" stroke-opacity="0.9061785" stroke-linecap="round" stroke-linejoin="round"/>
    <path d="M 349.58306885 327.79287720 C 346.92050171 325.49746704 344.47735596 323.01583862 342.42181396 320.24087524 C 340.74771118 317.33911133 339.39102173 314.24450684 338.35473633 311.01638794 C 337.61279297 307.76037598 337.15838623 304.71353149 337.43539429 301.57144165 C 337.49380493 298.32870483 338.08993530 295.30642700 339.29418945 292.43719482 C 340.20239258 289.43798828 341.45706177 286.69265747 343.58294678 284.52706909 C 345.43041992 281.89270020 347.96273804 279.74029541 350.71350098 277.70199585 C 353.66714478 275.78387451 356.79888916 274.28387451 360.09201050 273.44952393 C 363.23718262 272.83605957 366.44192505 272.94680786 369.50387573 272.81054688 C 372.40084839 273.17596436 375.42224121 273.76568604 378.30154419 274.64367676 C 381.20886230 276.17721558 384.27618408 277.64883423 387.07739258 279.40875244 C 389.49789429 281.41726685 391.57421875 283.78649902 393.38635254 286.23260498 C 394.92819214 288.92602539 396.24926758 291.58486938 397.29159546 294.37765503 C 398.02722168 297.30822754 398.31472778 300.18902588 398.46173096 302.94833374 C 398.47839355 305.71282959 397.91458130 308.53604126 397.16955566 311.36209106 C 396.23855591 314.08801270 395.12527466 316.74197388 393.68487549 319.33801270 C 392.16796875 321.84194946 390.42398071 324.15103149 388.38128662 326.17132568 C 386.11538696 327.87756348 383.75711060 329.47933960 381.25347900 330.80746460 C 378.65371704 331.92623901 375.98025513 332.87481689 373.30596924 333.37924194 C 370.46917725 334.01330566 367.67120361 334.23034668 364.86853027 333.82125854 C 361.71362305 333.30426025 358.38543701 332.98373413 349.58306885 327.79287720" stroke-width="2.00000000" fill="rgb(107, 106, 105)" opacity="1.0" stroke="rgb(0, 1, 3)" stroke-opacity="0.8988964" stroke-linecap="round" stroke-linejoin="round"/>
    <path d="M 158.42016602 299.64428711 C 158.07856750 301.97390747 158.28442383 304.39422607 158.15376282 307.05007935 C 157.58488464 309.87835693 156.78092957 312.78097534 155.58111572 315.69476318 C 154.26043701 318.63989258 152.43771362 321.27282715 150.40882874 323.77313232 C 148.43750000 326.14666748 146.12452698 328.06170654 143.52987671 329.69076538 C 140.82167053 331.16015625 138.15467834 332.36978149 135.23570251 333.21789551 C 132.41836548 334.04525757 129.57951355 334.35412598 126.61498260 334.15258789 C 123.66590118 333.51110840 120.56138611 332.67736816 117.55677795 331.30307007 C 114.55975342 329.93338013 111.65505981 328.22976685 108.95090485 326.25241089 C 106.37374115 324.34417725 104.30702972 321.91946411 102.51328278 319.29446411 C 101.00649261 316.56591797 99.78482056 313.62445068 99.02182007 310.57971191 C 98.38892365 307.53295898 97.69763947 304.52322388 97.59123993 301.49984741 C 98.15220642 298.39602661 98.88618469 295.52246094 99.86054993 292.57357788 C 101.00238800 289.73800659 102.41710663 287.00369263 104.09721375 284.44595337 C 106.18729401 282.01727295 108.49765778 279.72241211 111.26544952 277.70837402 C 114.24826813 275.88098145 117.37223816 274.46072388 120.76557922 273.51171875 C 123.94409943 272.70962524 127.11679077 272.64276123 130.30487061 272.93988037 C 133.40577698 273.42440796 136.47990417 274.01159668 139.18258667 274.99490356 C 141.74623108 276.23937988 144.11679077 277.73373413 146.34138489 279.24627686 C 148.60957336 280.43917847 150.32292175 282.25689697 151.94670105 284.35437012 C 153.73994446 286.52371216 155.65110779 288.61053467 158.42016602 299.64428711" stroke-width="2.00000000" fill="rgb(106, 108, 108)" opacity="1.0" stroke="rgb(0, 2, 4)" stroke-opacity="0.8672847" stroke-linecap="round" stroke-linejoin="round"/>
    <path d="M 68.63911438 234.88314819 C 70.61431885 235.36186218 72.66657257 235.52445984 74.39889526 235.98622131 C 76.02101898 236.50883484 77.74177551 237.06575012 79.22901154 237.53175354 C 80.62641144 238.32835388 81.78060150 238.76644897 82.77219391 239.36740112 C 83.32178497 240.15930176 84.02191925 240.87707520 84.43779755 241.50038147 C 84.18534088 242.35360718 84.21430969 243.40173340 84.12171936 244.77487183 C 83.49035645 246.17968750 82.63005829 247.78857422 81.73154449 249.22505188 C 80.85435486 250.65805054 79.98634338 252.04714966 78.72235107 253.25177002 C 77.11460114 254.34851074 75.29255676 255.43553162 73.52648163 256.46520996 C 71.73829651 257.10546875 69.96622467 257.51016235 68.09526062 257.78341675 C 66.26231384 258.17169189 64.51224518 258.46286011 62.89501190 258.68048096 C 61.25761032 258.75228882 59.49008179 258.86889648 57.99380493 258.89089966 C 56.49566650 258.56869507 54.94026947 258.57083130 53.62637329 258.54589844 C 52.41424561 258.21099854 51.41625214 257.78509521 50.80652618 257.47116089 C 50.66826630 256.77218628 50.87452316 255.95071411 51.08980560 254.77265930 C 51.01451874 253.40953064 51.20087814 251.81362915 51.48427582 250.07577515 C 51.81413651 248.17745972 52.34526062 246.45785522 52.92891312 244.69712830 C 53.67300034 242.97599792 54.10916901 241.27940369 54.83051300 239.83039856 C 55.79600906 238.76411438 56.57358932 237.63603210 56.98327637 236.47285461 C 57.54500580 235.72021484 58.22402954 235.19515991 58.84526825 234.67495728 C 59.49677277 234.41816711 60.10020828 234.15989685 68.63911438 234.88314819" stroke-width="0.83459342" fill="rgb(247, 196, 3)" opacity="1.0" stroke="rgb(158, 134, 39)" stroke-opacity="0.9099952" stroke-linecap="round" stroke-linejoin="round"/>
    <path d="M 272.89514160 216.60067749 C 272.71209717 218.11657715 272.74609375 219.62773132 272.80700684 221.02748108 C 273.11676025 222.13352966 272.93814087 223.21926880 272.72912598 224.03941345 C 272.71560669 224.66928101 272.86807251 225.15652466 272.73010254 225.41180420 C 272.08087158 225.62051392 270.98043823 225.71284485 269.72415161 225.70500183 C 268.46987915 225.78907776 267.24264526 225.82830811 266.23718262 226.00004578 C 265.88534546 225.92021179 265.83123779 225.29714966 265.85702515 224.19796753 C 265.92700195 222.64115906 266.08227539 220.70162964 266.13116455 218.31906128 C 266.18395996 215.77636719 266.25152588 213.05264282 266.60678101 210.29226685 C 266.82351685 207.52925110 266.97348022 204.63365173 267.10556030 201.71685791 C 267.31201172 198.81216431 267.40597534 195.95793152 267.51141357 193.29649353 C 267.67684937 190.80940247 267.77856445 188.48878479 267.80871582 186.36238098 C 267.97940063 184.46958923 268.00146484 182.82534790 268.07443237 181.48004150 C 268.33343506 180.35086060 268.32693481 179.32876587 268.23251343 178.65930176 C 268.68316650 178.42146301 269.34606934 178.40342712 270.18292236 178.45616150 C 271.13760376 178.51635742 272.06484985 178.49685669 272.83474731 178.84002686 C 273.25051880 179.52119446 273.23666382 180.46337891 273.12820435 181.57348633 C 272.85775757 182.78588867 272.89828491 184.15336609 273.20889282 185.64509583 C 273.11724854 187.23263550 273.04602051 188.94706726 273.30075073 190.71012878 C 273.22326660 192.50753784 273.25900269 194.31222534 273.22540283 196.19583130 C 273.02636719 198.00143433 272.69033813 199.92707825 272.89514160 216.60067749" stroke-width="0.93347394" fill="rgb(245, 136, 12)" opacity="1.0" stroke="rgb(131, 60, 20)" stroke-opacity="0.99400556" stroke-linecap="round" stroke-linejoin="round"/>
    <path d="M 167.08410645 216.69953918 C 166.90716553 217.54867554 166.94123840 218.48942566 167.10699463 219.50610352 C 167.17758179 220.53228760 167.03666687 221.56057739 167.03012085 222.50881958 C 167.19117737 223.24749756 167.45910645 223.94049072 167.49795532 224.55230713 C 167.22422791 224.98941040 166.79798889 225.24049377 166.42962646 225.31555176 C 165.86741638 225.25733948 165.10939026 225.31715393 164.30149841 225.29528809 C 163.53657532 225.07792664 162.79287720 224.93748474 161.86178589 224.60948181 C 160.80076599 224.30151367 159.58386230 224.25115967 158.25430298 223.97541809 C 156.90933228 223.73007202 155.59965515 223.46017456 154.36444092 223.25955200 C 153.23587036 222.78955078 152.16577148 222.29864502 151.15689087 221.76679993 C 150.18632507 221.26208496 149.51660156 220.81134033 149.13812256 220.58610535 C 149.23114014 220.19094849 149.35221863 219.78849792 149.40179443 219.51440430 C 149.27299500 219.10643005 148.82487488 218.59123230 148.40972900 218.22442627 C 148.12376404 218.02796936 147.89392090 217.86779785 147.71728516 217.74311829 C 147.66609192 217.75961304 147.81556702 217.88685608 148.04759216 217.98849487 C 148.28346252 218.06948853 148.50341797 218.25875854 148.77595520 218.62431335 C 149.05427551 219.04182434 149.34194946 219.23268127 149.72271729 219.11706543 C 150.21896362 218.76025391 150.91148376 218.34361267 151.82899475 217.77003479 C 152.90403748 216.90457153 154.28862000 216.18353271 155.82443237 215.22933960 C 157.47094727 214.13668823 159.28581238 213.04110718 161.53755188 212.03366089 C 163.82911682 210.97166443 166.06132507 209.77807617 167.08410645 216.69953918" stroke-width="0.91548133" fill="rgb(238, 59, 8)" opacity="1.0" stroke="rgb(131, 32, 22)" stroke-opacity="0.8514909" stroke-linecap="round" stroke-linejoin="round"/>
    <path d="M 362.75140381 214.31344604 C 363.14056396 215.04002380 363.66488647 215.78070068 364.22030640 216.51785278 C 364.50125122 217.23892212 364.72534180 218.08891296 364.60290527 218.41139221 C 363.43371582 218.51351929 362.73489380 218.73941040 362.01083374 219.01042175 C 361.03479004 218.27763367 360.29913330 218.21931458 359.42941284 219.10192871 C 357.38745117 219.38020325 355.16723633 219.53956604 352.67416382 219.52919006 C 350.14907837 219.83528137 348.14825439 219.48417664 347.11834717 218.54026794 C 346.71466064 217.27505493 346.83425903 216.12040710 346.52978516 214.94325256 C 346.66268921 214.02804565 346.66510010 213.35957336 346.25347900 213.22688293 C 346.20910645 213.71896362 346.51895142 214.30046082 346.67587280 215.02394104 C 346.41171265 216.18251038 346.63375854 217.57604980 347.04840088 218.76586914 C 347.29818726 219.55456543 347.84414673 219.67016602 348.74349976 219.10240173 C 349.15151978 217.91131592 348.80050659 215.92555237 348.74346924 213.53683472 C 349.18194580 211.37271118 347.43402100 210.23419189 346.23852539 208.17013550 C 346.62387085 204.38475037 346.24166870 199.96846008 346.75482178 195.91151428 C 346.77206421 192.43997192 346.14910889 189.80674744 345.30670166 188.63446045 C 346.03509521 188.06916809 347.34423828 188.40811157 348.17562866 190.11911011 C 348.32104492 192.21104431 349.33944702 194.34712219 350.61123657 196.31808472 C 352.11968994 198.16009521 353.49984741 200.17449951 354.83499146 202.21989441 C 356.17306519 204.37269592 357.42474365 206.73138428 358.94003296 208.47587585 C 360.13153076 210.30078125 361.39886475 212.39794922 362.75140381 214.31344604" stroke-width="2.00000000" fill="rgb(89, 199, 206)" opacity="1.0" stroke="rgb(10, 0, 0)" stroke-opacity="1.0" stroke-linecap="round" stroke-linejoin="round"/>
    <path d="M 240.09826660 242.99618530 C 241.14860535 241.82371521 242.22917175 240.73289490 243.45455933 239.92111206 C 244.70559692 239.19049072 246.03311157 238.91874695 247.49096680 238.78849792 C 249.07911682 238.73466492 250.64894104 238.59393311 252.20512390 238.37043762 C 253.81987000 238.28765869 255.52095032 238.01307678 257.27615356 237.72776794 C 259.20010376 237.86003113 261.17282104 238.05064392 263.13574219 238.16674805 C 264.99780273 238.12643433 266.76593018 238.24031067 268.29049683 238.32283020 C 269.51660156 238.26017761 270.57861328 238.24060059 271.39324951 238.57907104 C 271.65090942 239.25547791 271.76321411 240.17106628 271.78701782 241.24632263 C 271.67895508 242.31634521 271.72726440 243.26164246 271.64788818 244.00151062 C 270.96649170 244.45669556 269.76947021 244.61900330 268.35150146 244.73800659 C 266.90875244 244.81455994 265.45339966 244.93159485 263.84780884 245.12852478 C 262.20004272 245.08743286 260.79107666 245.15040588 259.63333130 245.25871277 C 258.70391846 245.36437988 258.02166748 245.80354309 257.67999268 246.50114441 C 257.66876221 247.32655334 257.61294556 248.12414551 257.45526123 248.81610107 C 256.75949097 249.31455994 255.59617615 249.69358826 254.35627747 250.16117859 C 253.18946838 250.39848328 252.22683716 250.11999512 251.20954895 249.55726624 C 250.48165894 248.87641907 249.85920715 248.16175842 249.52987671 247.27763367 C 249.35842896 246.47422791 248.97923279 245.95025635 248.30198669 245.73440552 C 247.10588074 245.66442871 245.53544617 245.70170593 243.72619629 245.84802246 C 241.71327209 245.83760071 239.68894958 245.92402649 240.09826660 242.99618530" stroke-width="1.00083530" fill="rgb(18, 3, 6)" opacity="1.0" stroke="rgb(89, 21, 29)" stroke-opacity="0.6371713" stroke-linecap="round" stroke-linejoin="round"/>
    <path d="M 154.14945984 211.44267273 C 152.72988892 212.58787537 151.22462463 213.52470398 149.95838928 214.62918091 C 148.62133789 215.59800720 147.60903931 216.63528442 146.68544006 217.43644714 C 146.57020569 218.23193359 146.43423462 218.65583801 145.96157837 218.79551697 C 145.42970276 218.41218567 144.84730530 217.54995728 144.44517517 216.35084534 C 143.73902893 215.43577576 143.53684998 214.22932434 143.17794800 213.09217834 C 142.49227905 212.11413574 142.18051147 211.15968323 142.28561401 210.02700806 C 142.61233521 209.24670410 143.30287170 208.58602905 144.21894836 207.83248901 C 145.25465393 207.36621094 146.49053955 206.99133301 147.73355103 206.26979065 C 148.91210938 205.38168335 150.12995911 204.60090637 151.60459900 204.20104980 C 153.05947876 203.43621826 154.26844788 202.71148682 155.66459656 202.40104675 C 156.86566162 202.15167236 157.63467407 201.52413940 158.41471863 200.72335815 C 159.34774780 200.45562744 160.46461487 200.43066406 161.36024475 200.19401550 C 162.28355408 199.76210022 163.10633850 199.44288635 163.84172058 199.43048096 C 164.52624512 199.40147400 164.95399475 199.40652466 165.39787292 199.28724670 C 165.68765259 199.47027588 165.77479553 199.78898621 165.68965149 200.22564697 C 165.73863220 200.86961365 165.92831421 201.57572937 165.86473083 202.35168457 C 165.64889526 203.18667603 165.65112305 204.00054932 165.96212769 204.55224609 C 165.81402588 204.98756409 165.47631836 205.78900146 165.29452515 206.51216125 C 164.76403809 206.82624817 163.98200989 207.00880432 163.21513367 207.24565125 C 162.22221375 207.42041016 161.36456299 207.47976685 154.14945984 211.44267273" stroke-width="2.00000000" fill="rgb(236, 67, 12)" opacity="1.0" stroke="rgb(30, 6, 9)" stroke-opacity="0.81270105" stroke-linecap="round" stroke-linejoin="round"/>
    <path d="M 329.60134888 230.12208557 C 333.56704712 229.63023376 337.38992310 229.19216919 340.88464355 229.25833130 C 343.79977417 229.33679199 346.02059937 228.90382385 347.62249756 228.03523254 C 348.86837769 228.16142273 349.39950562 229.36424255 349.41488647 231.43127441 C 349.47097778 233.99308777 349.20755005 236.53454590 348.55990601 238.68272400 C 347.55758667 240.26463318 346.61810303 240.83099365 346.12423706 240.13519287 C 346.05239868 238.45159912 345.76989746 236.93794250 344.33264160 236.01727295 C 341.75592041 236.09246826 339.00271606 236.31072998 336.66040039 236.46697998 C 335.43606567 237.14355469 335.17623901 238.42466736 334.45098877 239.85412598 C 332.28387451 240.82490540 329.24188232 241.43435669 326.08346558 240.48591614 C 322.62722778 238.08955383 318.60061646 235.75080872 329.60134888 230.12208557" stroke-width="1.00998259" fill="rgb(12, 6, 6)" opacity="1.0" stroke="rgb(0, 19, 53)" stroke-opacity="0.40088058" stroke-linecap="round" stroke-linejoin="round"/>
    <path d="M 86.37903595 244.28796387 C 86.73448181 242.87055969 87.05794525 241.49768066 86.94795990 240.16758728 C 86.44299316 239.00042725 85.82383728 237.79953003 84.64765930 236.59356689 C 82.93444061 235.70155334 81.35102844 234.91831970 79.49575043 234.14736938 C 77.29524994 233.50717163 74.77431488 233.05325317 72.23838806 232.48837280 C 69.79494476 232.09469604 67.72077942 231.69277954 66.00274658 231.44520569 C 64.81413269 231.30482483 64.06721497 231.19776917 64.03626251 231.04331970 C 64.66296387 230.51412964 65.71575928 229.80148315 67.51444244 229.24433899 C 69.87411499 228.44424438 72.50517273 228.01632690 75.27043915 228.00932312 C 78.34977722 228.22047424 81.55098724 228.83171082 84.74990082 229.40502930 C 88.14836884 230.66114807 91.59597015 232.02049255 86.37903595 244.28796387" stroke-width="0.84095269" fill="rgb(216, 209, 184)" opacity="1.0" stroke="rgb(104, 105, 91)" stroke-opacity="0.9677698" stroke-linecap="round" stroke-linejoin="round"/>
  </g>
</svg>
