<?xml version="1.0" ?>
<svg xmlns="http://www.w3.org/2000/svg" version="1.1" width="256" height="256" viewBox="0 0 256 256">
  <defs/>
  <g>
    <path d="M 222.64846802 149.55581665 C 207.88780212 156.12001038 192.75964355 154.47763062 177.72592163 152.67337036 C 159.44152832 151.73695374 145.07237244 153.46148682 128.50950623 152.62368774 C 109.39140320 152.99949646 97.21496582 152.31729126 80.29949951 153.24206543 C 60.96025085 152.15446472 44.98667908 154.01271057 28.77540588 151.90608215 C 18.11724091 147.80590820 17.70909882 120.79116058 32.69503784 111.51167297 C 51.06756592 106.11499786 52.65435028 106.95278931 71.62746429 102.74136353 C 94.68589783 99.70175934 99.46555328 93.66013336 118.02368927 88.36375427 C 134.72969055 86.61701965 146.16625977 84.79796600 168.21511841 88.64453888 C 181.14933777 92.47575378 198.19848633 100.89454651 212.42042542 111.36218262 C 225.90309143 126.13155365 230.95965576 131.08125305 222.64846802 149.55581665" stroke-width="0.60091883" fill="rgb(4, 3, 8)" opacity="1.0" stroke="rgb(0, 0, 0)" stroke-opacity="0.46043968" stroke-linecap="round" stroke-linejoin="round"/>
    <path d="M 78.09576416 148.91619873 C 73.42745972 148.77413940 65.72454834 149.64562988 57.77892685 150.01350403 C 48.66676331 150.11729431 42.13123322 150.21850586 35.80943298 148.53259277 C 29.74462509 145.53729248 24.20233154 140.45805359 23.17573547 132.55549622 C 23.78800201 123.01483154 28.59012985 119.50961304 34.50704193 115.63255310 C 41.04296494 112.06181335 46.23985672 110.89926147 55.55942535 109.37580109 C 63.48027802 108.29034424 67.04595947 106.44878387 73.79149628 104.34050751 C 79.21901703 102.94887543 85.34941101 101.42308044 91.86907959 105.50347900 C 95.46384430 110.18932343 95.01416016 116.69985199 96.64601135 125.66199493 C 98.45889282 133.78755188 100.84223938 140.97740173 100.21980286 146.78945923 C 94.33567047 151.07510376 84.72225952 147.91061401 78.09576416 148.91619873" stroke-width="0.65379351" fill="rgb(243, 58, 3)" opacity="1.0" stroke="rgb(170, 41, 25)" stroke-opacity="0.6600532" stroke-linecap="round" stroke-linejoin="round"/>
    <path d="M 127.51569366 103.48325348 C 127.51570129 103.48324585 127.51570892 103.48324585 127.51571655 103.48323822 C 127.51572418 103.48323822 127.51573181 103.48323822 127.51573944 103.48323822 C 127.51575470 103.48323822 127.51576233 103.48323822 127.51576996 103.48323822 C 127.51577759 103.48323822 127.51578522 103.48323822 127.51579285 103.48324585 C 127.51580048 103.48325348 127.51579285 103.48326111 127.51579285 103.48326874 C 127.51579285 103.48327637 127.51578522 103.48328400 127.51577759 103.48328400 C 127.51576996 103.48328400 127.51576233 103.48328400 127.51575470 103.48328400 C 127.51574707 103.48328400 127.51573181 103.48328400 127.51572418 103.48328400 C 127.51571655 103.48327637 127.51570892 103.48327637 127.51570129 103.48326874 C 127.51569366 103.48326874 127.51568604 103.48326111 127.51569366 103.48325348" stroke-width="0.44217369" fill="rgb(0, 255, 255)" opacity="1.0" stroke="rgb(106, 245, 255)" stroke-opacity="0.0" stroke-linecap="round" stroke-linejoin="round"/>
    <path d="M 219.58721924 146.54252625 C 217.14973450 149.88648987 207.87193298 149.47265625 199.46914673 149.27664185 C 191.24865723 149.11036682 184.63713074 149.20796204 176.54414368 149.30773926 C 168.99685669 149.24647522 160.79611206 149.87881470 152.73458862 148.68133545 C 146.53535461 144.06457520 151.76651001 138.88511658 154.68739319 128.31079102 C 157.17250061 119.14074707 160.25773621 113.99774170 162.40238953 105.42283630 C 165.24095154 98.87406921 163.79359436 91.16143799 172.25743103 92.17145538 C 181.97132874 95.89497375 182.74008179 98.23144531 193.62673950 103.70348358 C 199.99000549 105.86079407 208.83761597 106.13813019 214.88796997 108.19431305 C 220.24987793 117.26728058 218.90888977 119.53160858 220.44572449 124.97294617 C 222.28775024 129.52139282 225.42643738 136.77241516 219.58721924 146.54252625" stroke-width="0.66616905" fill="rgb(243, 58, 3)" opacity="1.0" stroke="rgb(152, 44, 29)" stroke-opacity="0.8179416" stroke-linecap="round" stroke-linejoin="round"/>
    <path d="M 52.26153564 173.27560425 C 48.06910706 171.24182129 44.23173904 166.50564575 42.03955460 162.51135254 C 38.79594421 156.78585815 39.16231537 152.46047974 39.61749268 147.83073425 C 41.03041840 141.65892029 43.85646057 136.61056519 46.58325958 134.04432678 C 53.02734375 128.62471008 56.41202545 128.25085449 61.26394272 127.31433105 C 66.82144928 127.02613831 70.69380188 126.95300293 77.16792297 131.00619507 C 80.68684387 134.08988953 83.56285858 136.10340881 85.30900574 139.88296509 C 87.98715210 145.24375916 88.63089752 150.24179077 88.03519440 155.19387817 C 87.30142212 160.64212036 85.02970123 164.73759460 80.74818420 169.19212341 C 77.56209564 172.07534790 74.08750153 174.72869873 67.48224640 176.14712524 C 62.07481003 176.84960938 56.75997925 175.70178223 52.26153564 173.27560425" stroke-width="0.43176937" fill="rgb(21, 16, 14)" opacity="1.0" stroke="rgb(17, 15, 28)" stroke-opacity="0.4893138" stroke-linecap="round" stroke-linejoin="round"/>
    <path d="M 190.13948059 175.46455383 C 185.11192322 177.17764282 178.09304810 176.23275757 175.26884460 174.65591431 C 168.22953796 171.32287598 166.13635254 169.39685059 162.92218018 164.37367249 C 160.90051270 160.67715454 158.51101685 156.61935425 159.10519409 149.70297241 C 159.24159241 145.11991882 161.10136414 140.71151733 165.11315918 135.53044128 C 169.44668579 131.17337036 173.19477844 128.77232361 179.06114197 127.41352844 C 184.37423706 126.92237091 187.25657654 126.21628571 191.74475098 128.09793091 C 198.14743042 130.83688354 201.33222961 133.22804260 204.29074097 137.32337952 C 207.26446533 141.39900208 209.34646606 147.14782715 209.00022888 152.55885315 C 208.42227173 156.80117798 207.96873474 160.27023315 203.33665466 166.69119263 C 199.62504578 170.83607483 196.84895325 173.24827576 190.13948059 175.46455383" stroke-width="0.44732913" fill="rgb(21, 13, 12)" opacity="1.0" stroke="rgb(10, 9, 27)" stroke-opacity="0.46904537" stroke-linecap="round" stroke-linejoin="round"/>
    <path d="M 139.44351196 115.40605164 C 138.12611389 119.60533142 131.96186829 119.63352203 125.61209106 120.50229645 C 119.46039581 121.64538574 115.11345673 121.82976532 109.34229279 122.40110016 C 103.55316162 122.22972870 97.51406860 123.77624512 92.30197906 123.58503723 C 87.03208923 121.86259460 86.30406952 118.84526825 84.49613953 111.04788971 C 84.01951599 104.73875427 83.48201752 97.81938934 87.67727661 95.81773376 C 93.57716370 93.44898987 94.95915985 93.49039459 101.07921600 91.52635193 C 106.32550049 90.15924835 109.49622345 89.34822845 116.76310730 88.65763855 C 122.77532959 88.12602234 128.29574585 88.57922363 133.79327393 88.08243561 C 140.91807556 86.25245667 140.71531677 91.46521759 141.09024048 98.27138519 C 141.21612549 105.56805420 141.19706726 109.19256592 139.44351196 115.40605164" stroke-width="2.00000000" fill="rgb(100, 197, 227)" opacity="1.0" stroke="rgb(0, 0, 0)" stroke-opacity="1.0" stroke-linecap="round" stroke-linejoin="round"/>
    <path d="M 174.46701050 108.14391327 C 173.10884094 110.43572998 167.62300110 109.99739075 163.66357422 110.42138672 C 158.35243225 110.78109741 155.78807068 111.25543213 151.74290466 111.36943054 C 146.91717529 111.35675812 143.30207825 112.56855774 139.69734192 112.44197083 C 136.30630493 110.18572998 137.35928345 106.54002380 135.99942017 101.51094055 C 135.37445068 97.01741791 133.27281189 92.56453705 134.46316528 89.89701080 C 139.72390747 88.87845612 138.94680786 89.51930237 143.91192627 89.27690887 C 149.39167786 89.47425079 152.61299133 89.85590363 156.22470093 90.30910492 C 160.32563782 90.61347961 163.75393677 91.63521576 168.92649841 91.85944366 C 173.45126343 92.55847168 179.24586487 89.22474670 176.10598755 95.67018127 C 175.48791504 101.46368408 175.99348450 101.99745941 174.46701050 108.14391327" stroke-width="2.00000000" fill="rgb(106, 213, 244)" opacity="1.0" stroke="rgb(4, 8, 12)" stroke-opacity="0.9706959" stroke-linecap="round" stroke-linejoin="round"/>
    <path d="M 40.92374039 126.21625519 C 39.14497375 128.01420593 38.15988159 129.56825256 36.62210846 131.23719788 C 34.29809189 133.75102234 33.14406586 135.06542969 30.61882401 136.56265259 C 28.74545479 137.92556763 25.75504112 138.50274658 23.46227074 137.05783081 C 21.49909973 135.58993530 21.43690109 132.68406677 21.95563126 129.14538574 C 22.50099564 127.31595612 22.66466522 124.84828186 23.32938004 121.46195221 C 24.34997177 118.99658966 25.06510162 117.49752808 26.46357727 115.64133453 C 28.37817192 113.98717499 29.50134277 112.33699036 33.31172943 111.65989685 C 36.49156952 111.19973755 38.41825104 111.68072510 39.89121628 113.50982666 C 41.48966980 114.74292755 43.08441925 117.09720612 43.88927078 119.75090027 C 44.35045624 121.67928314 43.64276123 123.59927368 40.92374039 126.21625519" stroke-width="0.59961867" fill="rgb(0, 0, 0)" opacity="1.0" stroke="rgb(5, 6, 4)" stroke-opacity="0.47536787" stroke-linecap="round" stroke-linejoin="round"/>
    <path d="M 39.02820587 134.96163940 C 37.91381836 136.47370911 37.14531326 138.84608459 36.35264587 141.57151794 C 35.29967499 144.95167542 35.73831177 146.07278442 35.46191788 148.93608093 C 33.88434982 149.74801636 30.68340874 149.22845459 28.37139320 148.13630676 C 26.42771149 146.41329956 26.12339020 145.01502991 25.16973305 141.41302490 C 25.01353836 139.86923218 24.46537781 137.10423279 24.33118439 133.85369873 C 24.64437103 131.17875671 24.65217590 130.45927429 25.42417145 127.72476959 C 25.80857468 126.35304260 26.86421585 121.90696716 29.15719414 122.50223541 C 31.49192047 123.43437195 33.04656982 125.12722778 35.31443787 126.68495178 C 36.87073135 127.67469788 39.89158630 128.12583923 42.26737213 128.89987183 C 42.37939835 130.45783997 39.65394974 132.43240356 39.02820587 134.96163940" stroke-width="1.37961602" fill="rgb(249, 67, 6)" opacity="1.0" stroke="rgb(29, 9, 19)" stroke-opacity="0.6281941" stroke-linecap="round" stroke-linejoin="round"/>
    <path d="M 222.85403442 117.76101685 C 223.12120056 120.31414032 222.91770935 122.71163940 221.10289001 124.52615356 C 218.25552368 124.12902832 216.46919250 122.39512634 215.75360107 118.94632721 C 215.84336853 115.91059113 217.58265686 114.42206573 217.45870972 110.79920197 C 217.74215698 107.84301758 216.02865601 106.80363464 211.77153015 106.83623505 C 209.64637756 106.24324036 206.68670654 105.52094269 203.12677002 105.22044373 C 200.84878540 105.05690002 198.71450806 102.85635376 199.86589050 102.05567932 C 202.57141113 102.72327423 204.55128479 103.37818146 208.47744751 103.48547363 C 211.82901001 104.18544769 212.43205261 104.04957581 216.05758667 104.49190521 C 220.32571411 105.30116272 221.64125061 105.68795013 222.48718262 108.82495880 C 223.09817505 112.68454742 222.12966919 114.59115601 222.85403442 117.76101685" stroke-width="0.53486335" fill="rgb(7, 8, 8)" opacity="1.0" stroke="rgb(25, 10, 0)" stroke-opacity="0.6415622" stroke-linecap="round" stroke-linejoin="round"/>
    <path d="M 212.63479614 110.97636414 C 215.03587341 110.59913635 215.65608215 110.43400574 217.18721008 108.14994812 C 218.76995850 106.30619812 219.94131470 108.86504364 220.28146362 111.20403290 C 220.45468140 113.51858521 219.43707275 115.24554443 220.00355530 117.03157043 C 220.95761108 118.93282318 222.84754944 119.85486603 223.42613220 122.37710571 C 223.56921387 123.67997742 222.54806519 125.72890472 221.19590759 127.31906891 C 219.45793152 128.85879517 217.98605347 128.73724365 216.64823914 128.01724243 C 213.43377686 127.41848755 212.84503174 127.64355469 210.81407166 126.29177856 C 208.58889771 124.31007385 208.68565369 123.96882629 208.10195923 121.34763336 C 207.69729614 119.69869232 207.77618408 117.01412964 208.31260681 115.30762482 C 209.14877319 112.84554291 210.24084473 111.76684570 212.63479614 110.97636414" stroke-width="2.00000000" fill="rgb(94, 16, 12)" opacity="1.0" stroke="rgb(223, 112, 13)" stroke-opacity="0.020041864" stroke-linecap="round" stroke-linejoin="round"/>
    <path d="M 136.52653503 126.16774750 C 136.52630615 126.16778564 136.52607727 126.16780853 136.52584839 126.16782379 C 136.52552795 126.16783905 136.52548218 126.16783142 136.52513123 126.16783905 C 136.52491760 126.16783905 136.52467346 126.16782379 136.52441406 126.16780090 C 136.52416992 126.16777802 136.52395630 126.16777039 136.52389526 126.16748810 C 136.52391052 126.16713715 136.52401733 126.16702271 136.52418518 126.16694641 C 136.52461243 126.16684723 136.52450562 126.16688538 136.52478027 126.16687012 C 136.52505493 126.16687775 136.52525330 126.16687775 136.52551270 126.16687012 C 136.52577209 126.16686249 136.52598572 126.16685486 136.52622986 126.16686249 C 136.52647400 126.16686249 136.52667236 126.16695404 136.52677917 126.16722870 C 136.52682495 126.16751862 136.52680969 126.16764832 136.52653503 126.16774750" stroke-width="1.23907244" fill="rgb(255, 40, 59)" opacity="1.0" stroke="rgb(0, 0, 0)" stroke-opacity="1.0" stroke-linecap="round" stroke-linejoin="round"/>
    <path d="M 85.88772583 105.29611206 C 86.07575989 105.65478516 87.13599396 106.98250580 87.70121002 107.83048248 C 88.50975037 109.19377899 89.31813049 109.85979462 89.18657684 110.79008484 C 88.45705414 111.59279633 87.84752655 112.11831665 86.66387177 113.05098724 C 85.67377472 114.08698273 84.59680176 114.36730957 83.52736664 113.68460846 C 82.06144714 113.56843567 81.14422607 113.77260590 80.20570374 113.53183746 C 78.37648773 112.74692535 78.39044952 112.93841553 78.16605377 111.98295593 C 79.06592560 110.97499084 79.39996338 110.00181580 79.84537506 108.73802948 C 80.43499756 107.42525482 80.89031982 106.73784637 81.44050598 105.76448059 C 82.10410309 104.73875427 82.63031006 103.49542999 83.27457428 102.59458923 C 84.25302124 102.91039276 84.92538452 104.54041290 85.88772583 105.29611206" stroke-width="0.00000000" fill="rgb(3, 0, 0)" opacity="1.0" stroke="rgb(18, 0, 0)" stroke-opacity="0.6516599" stroke-linecap="round" stroke-linejoin="round"/>
    <path d="M 105.87592316 95.29482269 C 108.65728760 96.94672394 108.44873047 97.18075562 111.54763794 100.75354004 C 112.51952362 102.25378418 114.22635651 104.98331451 113.55001068 108.28469849 C 112.88648987 110.32453918 111.65563965 111.93952942 107.97427368 112.90876770 C 104.99848175 113.37753296 103.97724152 113.06137085 100.50777435 112.90150452 C 96.92178345 113.48706055 94.53709412 113.55173492 92.72911835 114.05204010 C 88.27531433 113.81775665 88.64829254 114.90470886 86.82286072 112.97235107 C 86.45406342 110.53676605 87.17556000 107.85749054 87.45487213 105.07461548 C 87.86776733 102.54120636 87.86731720 100.80822754 90.54714203 98.78684235 C 93.67974854 96.70806885 94.81713867 96.21675873 97.55799103 95.09492493 C 100.91932678 94.08840179 103.56826019 94.14604187 105.87592316 95.29482269" stroke-width="0.88203037" fill="rgb(106, 216, 250)" opacity="1.0" stroke="rgb(125, 238, 255)" stroke-opacity="0.6169143" stroke-linecap="round" stroke-linejoin="round"/>
    <path d="M 47.79156494 124.89170074 C 45.40670776 127.08500671 41.48192978 131.16682434 39.20598602 134.05479431 C 41.11898804 132.53381348 43.86634445 128.67094421 47.57955551 125.57751465 C 52.76137161 122.28543091 55.92337036 122.20481110 61.61037064 120.93612671 C 66.99994659 119.87027740 70.99680328 120.76016235 76.06366730 123.64751434 C 81.59499359 125.26853180 84.12968445 123.49834442 88.39435577 124.38172150 C 93.75971985 126.85093689 93.63416290 129.93627930 97.60554504 126.68190002 C 96.77586365 125.14155579 91.71022034 127.13869476 85.86289215 128.08255005 C 80.43860626 127.81491852 78.52790070 125.17971802 73.85686493 122.90352631 C 70.12237549 121.90034485 67.51723480 122.07096863 61.93917084 120.41806030 C 57.33360291 120.92515564 53.70810699 120.67944336 47.79156494 124.89170074" stroke-width="0.59304953" fill="rgb(44, 13, 9)" opacity="1.0" stroke="rgb(91, 29, 20)" stroke-opacity="0.9304278" stroke-linecap="round" stroke-linejoin="round"/>
    <path d="M 158.81170654 124.71470642 C 164.81762695 122.77124023 168.33953857 122.04933929 174.59519958 120.81609344 C 181.92826843 119.48520660 186.69862366 119.35593414 192.13627625 120.95202637 C 198.89329529 122.94131470 202.74389648 126.00372314 206.72309875 131.40054321 C 210.93765259 137.38835144 212.25561523 143.18287659 212.31837463 146.09007263 C 213.23652649 151.67489624 210.86599731 149.28440857 210.90118408 141.91012573 C 207.31394958 135.45272827 208.39501953 133.91369629 204.42854309 130.11978149 C 198.35490417 125.11654663 199.89610291 125.08078766 191.06520081 121.95482635 C 184.21759033 121.56175232 185.48490906 119.92768860 174.92765808 122.26496124 C 169.25117493 123.33661652 165.49417114 127.05529785 160.62753296 130.33885193 C 156.68812561 132.63722229 154.45104980 129.81253052 158.81170654 124.71470642" stroke-width="0.37897724" fill="rgb(45, 12, 11)" opacity="1.0" stroke="rgb(0, 31, 51)" stroke-opacity="0.39568287" stroke-linecap="round" stroke-linejoin="round"/>
    <path d="M 228.25009155 246.86674500 C 216.54313660 245.99420166 201.18209839 245.05003357 179.11730957 247.02684021 C 161.34985352 246.80717468 147.98287964 247.18661499 128.06939697 246.94003296 C 108.65155792 246.61996460 95.73509216 249.60545349 76.76708984 249.09274292 C 53.11717224 245.65541077 42.94528961 246.57531738 29.98892975 250.95471191 C 1.93858337 252.15213013 7.40596008 245.11642456 25.93872833 245.93884277 C 54.34439850 243.29277039 57.50033569 247.00199890 70.13838196 243.77001953 C 89.03401184 246.14617920 104.09338379 244.99902344 120.55404663 244.11576843 C 146.04614258 243.11116028 152.78646851 245.83830261 171.91893005 244.80346680 C 191.87200928 245.54995728 206.65713501 244.20315552 223.04116821 245.13740540 C 243.87496948 244.08419800 258.24166870 247.79901123 228.25009155 246.86674500" stroke-width="0.76058197" fill="rgb(255, 255, 255)" opacity="1.0" stroke="rgb(255, 255, 255)" stroke-opacity="0.0" stroke-linecap="round" stroke-linejoin="round"/>
    <path d="M 141.42953491 140.70100403 C 141.31718445 147.82153320 139.73358154 148.77719116 128.97955322 149.54449463 C 121.43850708 149.55158997 116.81168365 148.98823547 107.53492737 149.39097595 C 99.40955353 149.19137573 92.23143768 151.95872498 91.21421814 142.76661682 C 90.88159180 136.61705017 87.23606110 130.12855530 79.08307648 124.69229126 C 79.28590393 117.17465210 83.44608307 118.28439331 93.88656616 117.54707336 C 102.04884338 116.18240356 104.77849579 117.02747345 110.96342468 116.40374756 C 116.53707886 115.71522522 122.51808929 115.56468964 132.41113281 115.02692413 C 142.23187256 113.92575073 141.07580566 116.03662109 131.88659668 119.59591675 C 127.08384705 125.20169067 132.75967407 121.68465424 139.54551697 122.41994476 C 140.14633179 126.46649170 138.42088318 129.89610291 141.42953491 140.70100403" stroke-width="2.00000000" fill="rgb(249, 57, 1)" opacity="1.0" stroke="rgb(40, 0, 0)" stroke-opacity="0.8610421" stroke-linecap="round" stroke-linejoin="round"/>
    <path d="M 158.58074951 133.38592529 C 157.44322205 135.63729858 154.24665833 142.01922607 154.18318176 147.79998779 C 151.37332153 151.98400879 149.84402466 147.59490967 141.14999390 149.78535461 C 133.83787537 149.43859863 135.33444214 146.40065002 135.91148376 138.36752319 C 136.21679688 131.48831177 136.44898987 126.25405121 136.07467651 121.54402161 C 135.01068115 115.19478607 136.80126953 114.70674896 145.39016724 114.36916351 C 153.73925781 113.74601746 153.18237305 113.85589600 158.89710999 113.49646759 C 164.77301025 113.45790100 167.20123291 112.33943176 173.52458191 112.88340759 C 172.78546143 115.82807922 162.35252380 114.41622925 164.29910278 115.26780701 C 168.43263245 116.11318970 175.13179016 114.39878082 172.62319946 120.89534760 C 165.65061951 125.15363312 164.12402344 125.53769684 158.58074951 133.38592529" stroke-width="1.55896974" fill="rgb(248, 59, 2)" opacity="1.0" stroke="rgb(17, 4, 16)" stroke-opacity="0.6554207" stroke-linecap="round" stroke-linejoin="round"/>
    <path d="M 174.56924438 163.76092529 C 171.50505066 161.36740112 169.66024780 158.44116211 169.20248413 156.42117310 C 168.23916626 151.84828186 168.47854614 149.39006042 169.36878967 146.64941406 C 171.24017334 142.61459351 172.45390320 140.39350891 175.15989685 138.67443848 C 177.58091736 137.17871094 180.36360168 136.16212463 184.44546509 136.06828308 C 188.13955688 136.58288574 190.95678711 137.73384094 193.91215515 139.98596191 C 196.16741943 142.30537415 197.55989075 143.12319946 198.41476440 146.21360779 C 199.66574097 150.07809448 199.48603821 153.29832458 198.63900757 155.97535706 C 197.52746582 159.51101685 195.58381653 162.18548584 192.98159790 164.08303833 C 190.62669373 165.37236023 188.56355286 167.01200867 183.89683533 167.22373962 C 180.86834717 167.17880249 177.49588013 166.00152588 174.56924438 163.76092529" stroke-width="1.44168866" fill="rgb(105, 106, 106)" opacity="1.0" stroke="rgb(0, 0, 0)" stroke-opacity="0.9892118" stroke-linecap="round" stroke-linejoin="round"/>
    <path d="M 78.89319611 147.48912048 C 79.54844666 150.94334412 79.25003815 153.25592041 78.45391083 156.51051331 C 77.26719666 160.53854370 75.26086426 161.94277954 73.08255768 164.14671326 C 70.10112762 166.14218140 66.79327393 167.47987366 63.85561371 167.17942810 C 59.44805527 166.78451538 56.06672287 164.47482300 54.50942993 163.33975220 C 51.96581268 161.01867676 50.23234558 159.18214417 49.18746567 154.59034729 C 48.98206329 151.63966370 48.63398361 149.47987366 49.50875854 146.83509827 C 51.24109268 142.68774414 52.59905243 141.21183777 55.17596054 139.06709290 C 59.16588974 136.68791199 61.28630829 136.08692932 64.31164551 136.27655029 C 67.01676178 136.52740479 69.89710236 137.25270081 73.50938416 139.60171509 C 76.56975555 142.33435059 77.69610596 144.47502136 78.89319611 147.48912048" stroke-width="1.42300415" fill="rgb(105, 105, 104)" opacity="1.0" stroke="rgb(0, 0, 0)" stroke-opacity="1.0" stroke-linecap="round" stroke-linejoin="round"/>
    <path d="M 34.57658005 117.21424866 C 35.65549088 117.61626434 36.96161652 117.79299927 38.92631531 118.40693665 C 40.70940781 119.13906860 42.70401764 119.03317261 42.56825638 120.29426575 C 42.34393692 122.31730652 41.75182724 124.06269836 41.00693512 124.94037628 C 39.42753601 127.04220581 38.25972748 127.65248871 37.06359100 128.40646362 C 34.49217606 129.27815247 34.55929184 129.29510498 31.65315628 129.49470520 C 30.14017105 129.47596741 28.95216560 129.50727844 27.42946625 129.51113892 C 25.12904739 129.76744080 25.38541222 127.94813538 25.46391106 126.23052979 C 25.60153580 123.82307434 25.94459724 122.92971802 26.54824066 121.46356964 C 27.06893158 119.94680786 28.06429863 118.02729797 28.99705315 117.36450958 C 30.51292419 116.43292236 32.20431519 117.22615051 34.57658005 117.21424866" stroke-width="1.37663567" fill="rgb(247, 195, 6)" opacity="1.0" stroke="rgb(23, 17, 18)" stroke-opacity="0.9208702" stroke-linecap="round" stroke-linejoin="round"/>
    <path d="M 136.68109131 105.53369141 C 136.69285583 106.60498047 136.78150940 108.66686249 136.78952026 110.60706329 C 136.98146057 113.49505615 135.80047607 113.11116791 133.58885193 113.22808075 C 131.76921082 112.97518921 132.47866821 110.62773132 132.48822021 108.62508392 C 132.62715149 106.50284576 132.78991699 104.89468384 132.95561218 102.73741913 C 133.20417786 100.29994965 133.20793152 98.99942017 133.45213318 97.25042725 C 133.70541382 93.82285309 133.62371826 94.76308441 133.72186279 92.39169312 C 133.32467651 90.05378723 133.87704468 88.11404419 136.25856018 88.69389343 C 137.22904968 89.57375336 136.52093506 92.13943481 136.83491516 93.73755646 C 136.77046204 96.19973755 136.91735840 97.42501831 136.81182861 99.19360352 C 136.73193359 101.31362915 136.64825439 103.32709503 136.68109131 105.53369141" stroke-width="2.00000000" fill="rgb(233, 128, 15)" opacity="1.0" stroke="rgb(6, 0, 3)" stroke-opacity="0.99042094" stroke-linecap="round" stroke-linejoin="round"/>
    <path d="M 83.35726166 106.56369019 C 83.49400330 107.28424072 83.79087830 108.19982910 83.83432007 109.44421387 C 83.76862335 110.42045593 83.78385162 111.62319946 83.22863770 112.50636292 C 82.54956055 113.00748444 81.25150299 112.52266693 80.31047821 112.35160828 C 78.95013428 112.15529633 77.75442505 111.66535187 76.98445129 111.54045105 C 75.25556946 110.85016632 75.39945984 111.03012085 73.73896790 110.02142334 C 73.29688263 109.34786224 72.50835419 108.45413208 73.00622559 107.96292114 C 73.86205292 107.32612610 74.89899445 106.40933228 75.51427460 105.54744720 C 76.62511444 104.53179169 77.06790161 104.28894043 78.18062592 104.14059448 C 79.16382599 103.92112732 80.36245728 103.59046936 81.44262695 103.65486908 C 82.61315155 104.39038849 82.50209045 105.23789215 83.35726166 106.56369019" stroke-width="1.91620803" fill="rgb(248, 59, 7)" opacity="1.0" stroke="rgb(17, 2, 12)" stroke-opacity="0.9113443" stroke-linecap="round" stroke-linejoin="round"/>
    <path d="M 180.32583618 105.13118744 C 180.53561401 105.51794434 181.89576721 107.43236542 182.51737976 108.80066681 C 182.51461792 110.23527527 180.42195129 108.99718475 178.81114197 109.52680206 C 177.03439331 109.70198822 175.89596558 110.71485138 174.82023621 109.70664978 C 173.99542236 108.21049500 174.27084351 106.98212433 174.08694458 104.92761230 C 173.64874268 103.90220642 173.65501404 102.55638885 173.43608093 100.37261963 C 173.35710144 98.14842987 173.50468445 97.95588684 173.08801270 96.44258118 C 172.66911316 94.36776733 171.98793030 92.98654175 174.66003418 93.26388550 C 176.76240540 93.86726379 176.60762024 94.61658478 176.12200928 96.31278992 C 176.11734009 98.34624481 176.06513977 98.84722137 177.22026062 100.75770569 C 178.10005188 102.03166199 179.12181091 103.29397583 180.32583618 105.13118744" stroke-width="2.00000000" fill="rgb(89, 179, 180)" opacity="1.0" stroke="rgb(27, 5, 1)" stroke-opacity="1.0" stroke-linecap="round" stroke-linejoin="round"/>
    <path d="M 121.16835022 120.59352112 C 121.57657623 120.32468414 122.64325714 119.50351715 123.99594879 119.35911560 C 125.06619263 119.37403870 126.25288391 119.22048950 127.49921417 118.95184326 C 128.74317932 118.89400482 129.62889099 118.83481598 131.10777283 119.08280182 C 131.98358154 119.24021149 133.66322327 119.20779419 134.50610352 120.26979828 C 134.39559937 121.87083435 133.78633118 121.87228394 132.45108032 122.12375641 C 130.51527405 122.17713928 130.28833008 121.56005859 129.58657837 122.47472382 C 128.74310303 124.09596252 128.78446960 124.40447235 127.09181976 125.11687469 C 125.69094849 125.28786469 125.32643127 124.69190216 124.54482269 123.11244202 C 123.60528564 122.40126038 122.63691711 123.01760864 121.52584839 122.97132111 C 119.74565887 122.78738403 119.44237518 121.61285400 121.16835022 120.59352112" stroke-width="0.48086104" fill="rgb(9, 5, 7)" opacity="1.0" stroke="rgb(0, 0, 33)" stroke-opacity="0.55177295" stroke-linecap="round" stroke-linejoin="round"/>
    <path d="M 78.15617371 105.21891022 C 76.72484589 106.01357269 76.59349823 105.97814941 75.06933594 107.03541565 C 74.11616516 107.49570465 73.26448059 109.39801025 72.76675415 108.84258270 C 72.34100342 107.15137482 71.88018036 106.84251404 71.32917786 105.27112579 C 70.97801971 103.93493652 70.98148346 103.02327728 72.77305603 102.53129578 C 74.58893585 101.82527924 74.27174377 101.90353394 76.18039703 100.76920319 C 77.33900452 100.12130737 77.72708893 99.90426636 78.94036102 99.45610046 C 80.57834625 98.98236847 80.28147888 98.91930389 82.03339386 98.30383301 C 82.74387360 97.96124268 82.14321899 99.30089569 82.56046295 100.84637451 C 82.72969055 102.30852509 82.91759491 102.67778015 81.88793182 103.50297546 C 80.70641327 103.87867737 79.21730804 104.37711334 78.15617371 105.21891022" stroke-width="2.00000000" fill="rgb(207, 53, 10)" opacity="1.0" stroke="rgb(32, 8, 11)" stroke-opacity="1.0" stroke-linecap="round" stroke-linejoin="round"/>
    <path d="M 163.21124268 116.23502350 C 163.75976562 115.99271393 164.45408630 115.53678894 165.82792664 115.14590454 C 166.83723450 114.89361572 167.58874512 114.91205597 168.94679260 114.86445618 C 169.85696411 114.90398407 170.80079651 114.89334869 172.10163879 114.93707275 C 173.08399963 115.10939789 174.59518433 114.84146881 174.63398743 115.82655334 C 174.40713501 117.30469513 173.58074951 118.18342590 172.87194824 118.01031494 C 171.02746582 118.02457428 171.51359558 118.05314636 170.01165771 117.77989960 C 168.55511475 117.70413208 167.85710144 117.92825317 167.49678040 118.97044373 C 166.87031555 119.87014771 166.16888428 120.19243622 164.63012695 120.18421173 C 163.71345520 120.18692780 162.70895386 119.97964478 161.73362732 118.80187225 C 160.98370361 117.91088104 161.62719727 117.36755371 163.21124268 116.23502350" stroke-width="0.66701168" fill="rgb(6, 8, 7)" opacity="1.0" stroke="rgb(2, 11, 31)" stroke-opacity="0.56926197" stroke-linecap="round" stroke-linejoin="round"/>
    <path d="M 44.23672104 115.54177856 C 44.74954987 116.43804169 44.75410843 117.41897583 44.60313034 118.53247070 C 44.13652420 119.49977112 44.09872055 120.15475464 43.81346893 120.91159821 C 43.73182678 121.35287476 43.32717133 119.79728699 42.31162643 118.69430542 C 41.57361603 117.71815491 40.27214813 117.24710083 39.22988510 117.00859833 C 37.67228317 116.67809296 36.80390167 116.51869202 35.80078125 116.38101959 C 33.91537476 115.76353455 34.61474609 115.65216064 32.82572556 115.69538879 C 31.13406372 115.63687134 33.46662140 114.70847321 34.44926071 114.25348663 C 35.67528152 113.77828217 36.27567291 113.78539276 37.84186172 114.10302734 C 38.83357620 114.14340973 39.57774353 114.15361023 41.13161850 114.57884216 C 42.62282562 114.83896637 43.10399246 114.99463654 44.23672104 115.54177856" stroke-width="1.30096638" fill="rgb(205, 204, 184)" opacity="1.0" stroke="rgb(50, 41, 33)" stroke-opacity="1.0" stroke-linecap="round" stroke-linejoin="round"/>
  </g>
</svg>
