# Created by Open3D 
# object name: sea
# number of vertices: 66
# number of triangles: 128
v 72.5046 1 100
vn -0.0215583 -0.296377 0.954828
v 100 1 100
vn 0.024506 -0.999609 0.013476
v 100 1 0
vn 0.0495372 -0.99875 -0.00673993
v 72.7884 1 0
vn -0.000345833 -0.77135 -0.636411
v 72.7813 1 0.0295781
vn -0.997086 -0.00484996 -0.0761283
v 72.6082 1 2.42394
vn -0.0462823 -0.998928 -0.000663525
v 72.7945 1 8.78258
vn -0.0538146 -0.998551 0.000278289
v 72.5257 1 16.1477
vn -0.0527174 -0.998609 0.000144115
v 73.1265 1 24.5069
vn -0.0568812 -0.998378 0.00259807
v 72.972 1 30.7143
vn -0.0550108 -0.998486 0.000298823
v 73.3789 1 36.3254
vn -0.0420796 -0.999113 0.00132454
v 73.0429 1 40.2822
vn -0.985859 -0.162023 -0.04279
v 73.2168 1 43.8475
vn -0.0287104 -0.999588 0.000361673
v 72.9952 1 46.7433
vn -0.990277 -0.136101 -0.0287749
v 73.1883 1 49.5565
vn -0.00281329 -0.999996 3.97699e-05
v 72.9237 1 52.5323
vn -0.983458 -0.179071 -0.0272887
v 73.1434 1 57.7393
vn -0.0412813 -0.999147 0.000862568
v 72.958 1 59.4812
vn -0.995201 -0.0749911 -0.0628565
v 73.0617 1 60.2248
vn -0.0155679 -0.999879 -0.000470589
v 72.747 1 62.285
vn -0.984219 -0.161712 -0.0718551
v 72.8282 1 65.674
vn -0.0245505 -0.999699 -3.27414e-05
v 72.6553 1 66.8293
vn -0.989549 -0.14197 -0.0252551
v 72.8173 1 71.7216
vn -0.0503224 -0.998733 0.000874331
v 72.6775 1 72.5428
vn -0.99406 -0.0939633 -0.0549075
v 72.8212 1 73.3636
vn -0.0345907 -0.999401 -0.000842476
v 72.3554 1 79.0459
vn -0.0581006 -0.998307 -0.0028812
v 72.5676 1 82.1878
vn -0.0518962 -0.998652 0.000421079
v 72.2263 1 86.1482
vn -0.044675 -0.998997 -0.00301095
v 72.2079 1 88.6293
vn -0.991377 -0.123924 0.0425957
v 72.539 1 90.5176
vn -0.0343249 -0.999403 0.00390164
v 72.7274 1 94.2248
vn -0.0555243 -0.998457 0.00036122
v 72.4209 1 97.6199
vn -0.0585093 -0.998282 -0.00325472
v 72.5409 1 99.6904
vn -0.0679681 -0.997683 0.0031108
v 72.5046 2 100
vn -0.00556691 0.153064 0.988201
v 100 2 100
vn 0.0489711 0.998778 0.0067324
v 100 2 0
vn 0.0247897 0.999602 -0.0134914
v 72.7884 2 0
vn -0.000828884 0.924375 -0.381483
v 72.7813 2 0.0295781
vn -0.99732 0.00247022 -0.0731257
v 72.6082 2 2.42394
vn -0.0626852 0.998033 0.000828059
v 72.7945 2 8.78258
vn -0.0565032 0.998402 -0.000941384
v 72.5257 2 16.1477
vn -0.0549803 0.998485 0.00212949
v 73.1265 2 24.5069
vn -0.0515575 0.99867 0.000724218
v 72.972 2 30.7143
vn -0.053196 0.998582 0.00201242
v 73.3789 2 36.3254
vn -0.0375006 0.999296 -0.000735441
v 73.0429 2 40.2822
vn -0.985831 0.167738 0.00104903
v 73.2168 2 43.8475
vn -0.0267943 0.999641 -0.000770932
v 72.9952 2 46.7433
vn -0.990327 0.137426 0.0191369
v 73.1883 2 49.5565
vn -0.00286647 0.999996 -0.000109945
v 72.9237 2 52.5323
vn -0.9886 0.150012 0.0128993
v 73.1434 2 57.7393
vn -0.0295261 0.999564 -0.000513196
v 72.958 2 59.4812
vn -0.995146 0.0981711 0.00681572
v 73.0617 2 60.2248
vn -0.0213438 0.99977 -0.00230679
v 72.747 2 62.285
vn -0.990252 0.138241 -0.0170684
v 72.8282 2 65.674
vn -0.0176406 0.999844 -0.00081933
v 72.6553 2 66.8293
vn -0.995474 0.0940335 0.0137586
v 72.8173 2 71.7216
vn -0.0310303 0.999518 -0.000558857
v 72.6775 2 72.5428
vn -0.993795 0.0939525 0.0595323
v 72.8212 2 73.3636
vn -0.05749 0.998339 -0.00371722
v 72.3554 2 79.0459
vn -0.0479524 0.99885 -0.000165711
v 72.5676 2 82.1878
vn -0.0560294 0.998426 -0.0023826
v 72.2263 2 86.1482
vn -0.0383321 0.999264 -0.00162443
v 72.2079 2 88.6293
vn -0.985658 0.134882 0.101418
v 72.539 2 90.5176
vn -0.0426542 0.999085 0.00324588
v 72.7274 2 94.2248
vn -0.0539258 0.998543 -0.00218078
v 72.4209 2 97.6199
vn -0.049787 0.99876 -0.000438935
v 72.5409 2 99.6904
vn -0.0411361 0.999153 0.000724719
f 6//6 5//5 4//4
f 27//27 26//26 2//2
f 30//30 29//29 28//28
f 31//31 30//30 2//2
f 28//28 2//2 30//30
f 2//2 32//32 31//31
f 2//2 33//33 32//32
f 27//27 2//2 28//28
f 1//1 33//33 2//2
f 4//4 3//3 6//6
f 3//3 11//11 10//10
f 9//9 8//8 3//3
f 13//13 11//11 3//3
f 13//13 12//12 11//11
f 13//13 15//15 14//14
f 10//10 9//9 3//3
f 7//7 6//6 3//3
f 15//15 13//13 3//3
f 2//2 23//23 21//21
f 23//23 25//25 24//24
f 2//2 25//25 23//23
f 23//23 22//22 21//21
f 17//17 15//15 2//2
f 17//17 19//19 18//18
f 19//19 17//17 2//2
f 19//19 2//2 21//21
f 19//19 21//21 20//20
f 15//15 3//3 2//2
f 17//17 16//16 15//15
f 25//25 2//2 26//26
f 8//8 7//7 3//3
f 39//39 37//37 38//38
f 60//60 35//35 59//59
f 63//63 61//61 62//62
f 64//64 35//35 63//63
f 61//61 63//63 35//35
f 35//35 64//64 65//65
f 35//35 65//65 66//66
f 60//60 61//61 35//35
f 34//34 35//35 66//66
f 37//37 39//39 36//36
f 36//36 43//43 44//44
f 42//42 36//36 41//41
f 46//46 36//36 44//44
f 46//46 44//44 45//45
f 46//46 47//47 48//48
f 43//43 36//36 42//42
f 40//40 36//36 39//39
f 48//48 36//36 46//46
f 35//35 54//54 56//56
f 56//56 57//57 58//58
f 35//35 56//56 58//58
f 56//56 54//54 55//55
f 50//50 35//35 48//48
f 50//50 51//51 52//52
f 52//52 35//35 50//50
f 52//52 54//54 35//35
f 52//52 53//53 54//54
f 48//48 35//35 36//36
f 50//50 48//48 49//49
f 58//58 59//59 35//35
f 41//41 36//36 40//40
f 1//1 2//2 34//34
f 34//34 2//2 35//35
f 2//2 3//3 35//35
f 35//35 3//3 36//36
f 3//3 4//4 36//36
f 36//36 4//4 37//37
f 4//4 5//5 37//37
f 37//37 5//5 38//38
f 5//5 6//6 38//38
f 38//38 6//6 39//39
f 6//6 7//7 39//39
f 39//39 7//7 40//40
f 7//7 8//8 40//40
f 40//40 8//8 41//41
f 8//8 9//9 41//41
f 41//41 9//9 42//42
f 9//9 10//10 42//42
f 42//42 10//10 43//43
f 10//10 11//11 43//43
f 43//43 11//11 44//44
f 11//11 12//12 44//44
f 44//44 12//12 45//45
f 12//12 13//13 45//45
f 45//45 13//13 46//46
f 13//13 14//14 46//46
f 46//46 14//14 47//47
f 14//14 15//15 47//47
f 47//47 15//15 48//48
f 15//15 16//16 48//48
f 48//48 16//16 49//49
f 16//16 17//17 49//49
f 49//49 17//17 50//50
f 17//17 18//18 50//50
f 50//50 18//18 51//51
f 18//18 19//19 51//51
f 51//51 19//19 52//52
f 19//19 20//20 52//52
f 52//52 20//20 53//53
f 20//20 21//21 53//53
f 53//53 21//21 54//54
f 21//21 22//22 54//54
f 54//54 22//22 55//55
f 22//22 23//23 55//55
f 55//55 23//23 56//56
f 23//23 24//24 56//56
f 56//56 24//24 57//57
f 24//24 25//25 57//57
f 57//57 25//25 58//58
f 25//25 26//26 58//58
f 58//58 26//26 59//59
f 26//26 27//27 59//59
f 59//59 27//27 60//60
f 27//27 28//28 60//60
f 60//60 28//28 61//61
f 28//28 29//29 61//61
f 61//61 29//29 62//62
f 29//29 30//30 62//62
f 62//62 30//30 63//63
f 30//30 31//31 63//63
f 63//63 31//31 64//64
f 31//31 32//32 64//64
f 64//64 32//32 65//65
f 32//32 33//33 65//65
f 65//65 33//33 66//66
f 33//33 1//1 66//66
f 66//66 1//1 34//34
