# Created by Open3D 
# object name: water_roads_secondary
# number of vertices: 146
# number of triangles: 288
v 2.18567 2 37.5767
vn 0.0438304 -0.873479 0.484886
v 5.80987 2 37.5272
vn -0.0200218 -0.773464 0.633524
v 9.49227 2 37.9718
vn -0.101804 -0.518729 0.848856
v 9.57628 2 37.976
vn 0.0120881 -0.765078 0.643824
v 17.8657 2 37.8088
vn -0.0117852 -0.835692 0.549072
v 23.6562 2 38.6233
vn -0.118818 -0.519786 0.845994
v 23.7109 2 38.6284
vn -0.0633305 -0.00167905 0.997991
v 23.7659 2 38.6286
vn 0.026921 -0.768243 0.639592
v 26.9875 2 38.4881
vn -0.00502248 -0.850449 0.526033
v 30.2142 2 38.8614
vn -0.0976046 -0.523614 0.846346
v 30.2671 2 38.8651
vn -0.0414708 -0.00156319 0.999138
v 30.3201 2 38.8642
vn 0.039043 -0.768231 0.638981
v 37.0843 2 38.4463
vn 0.0166129 -0.825534 0.564109
v 40.8637 2 38.7724
vn -0.071931 -0.54148 0.837631
v 40.9255 2 38.7746
vn -0.000206494 -0.0084663 0.999964
v 40.9872 2 38.7703
vn 0.102677 -0.00212228 0.994712
v 41.0481 2 38.7598
vn 0.204291 -0.0419376 0.978011
v 41.1076 2 38.743
vn 0.304094 -0.00212228 0.95264
v 41.165 2 38.7202
vn 0.258822 -0.781488 0.567704
v 44.9498 2 36.9879
vn 0.203119 -0.835161 0.511125
v 47.6236 2 36.3819
vn 0.114126 -0.657132 0.745085
v 51.7083 2 36.1492
vn -0.0161901 -0.846267 0.532513
v 54.545 2 36.9491
vn -0.201915 -0.788037 0.581573
v 57.566 2 38.3679
vn -0.326115 -0.697119 0.638493
v 59.0402 2 39.3693
vn -0.455248 -0.584954 0.671251
v 59.0883 2 39.3988
vn -0.49336 -0.0897711 0.86518
v 59.139 2 39.4236
vn -0.411513 -0.00177073 0.911402
v 59.1918 2 39.4436
vn -0.323845 -0.0332974 0.945524
v 59.2463 2 39.4585
vn -0.233659 -0.00706709 0.972293
v 59.3019 2 39.4682
vn -0.141237 -0.00177073 0.989974
v 59.3582 2 39.4727
vn -0.0474749 -0.0592278 0.997115
v 59.4147 2 39.4718
vn 0.0389217 -0.776211 0.629271
v 70.2508 2 38.7963
vn 0.03178 -0.800258 0.598813
v 73.1057 2 38.8456
vn 0.162734 -0.506341 0.846839
v 73.1264 2 37.6458
vn 0.312583 -0.878173 -0.362084
v 70.2477 2 37.5961
vn 0.0144984 -0.517596 -0.855502
v 70.2 2 37.5971
vn -0.0397091 -0.766824 -0.640628
v 59.5448 2 38.2614
vn -0.0109658 -0.80174 -0.597573
v 58.2011 2 37.3486
vn 0.475914 -0.530517 -0.701468
v 58.161 2 37.3236
vn 0.506409 -0.00124144 -0.862293
v 58.119 2 37.3018
vn 0.167726 -0.919248 -0.356162
v 55.0105 2 35.842
vn 0.362221 -0.522519 -0.771862
v 54.9651 2 35.8229
vn 0.36222 -0.00134745 -0.932092
v 54.9183 2 35.8076
vn 0.108429 -0.917502 -0.382665
v 51.9373 2 34.967
vn 0.228962 -0.534167 -0.813783
v 51.8726 2 34.9525
vn 0.181691 -0.0097408 -0.983307
v 51.8066 2 34.9453
vn 0.0720698 -0.00244277 -0.997397
v 51.7403 2 34.9454
vn -0.0350146 -0.773003 -0.633436
v 47.5055 2 35.1866
vn -0.0368146 -0.764476 -0.6436
v 47.456 2 35.1915
vn -0.125722 -0.00137686 -0.992065
v 47.407 2 35.2005
vn -0.0871462 -0.917958 -0.386986
v 44.6239 2 35.8313
vn -0.188388 -0.52654 -0.829015
v 44.5643 2 35.8481
vn -0.303973 -0.00212677 -0.952678
v 44.5068 2 35.8709
vn -0.265535 -0.768246 -0.582486
v 40.8094 2 37.5633
vn -0.137114 -0.858417 -0.494287
v 37.1432 2 37.2469
vn 0.0731827 -0.52125 -0.850261
v 37.0989 2 37.2447
vn 0.0245046 -0.00109148 -0.999699
v 37.0546 2 37.2458
vn -0.0391736 -0.768227 -0.638978
v 30.2992 2 37.6632
vn -0.015718 -0.822115 -0.569104
v 27.078 2 37.2906
vn 0.0977268 -0.522706 -0.846893
v 27.0305 2 37.287
vn 0.0490152 -0.00125934 -0.998797
v 26.9829 2 37.2871
vn -0.0271581 -0.768235 -0.639591
v 23.7687 2 37.4273
vn 0.02127 -0.873076 -0.487121
v 17.9852 2 36.6138
vn 0.118917 -0.51912 -0.846388
v 17.9375 2 36.609
vn 0.0730585 -0.00127787 -0.997327
v 17.8895 2 36.608
vn -0.0126175 -0.768227 -0.640053
v 9.59424 2 36.7754
vn 0.00310716 -0.818739 -0.574157
v 5.91378 2 36.331
vn 0.101877 -0.518537 -0.848964
v 5.83366 2 36.3267
vn -0.00434608 -0.917055 -0.398738
v 2.12638 2 36.3774
vn -0.0123838 -0.518802 -0.854805
v 2.04113 2 36.3847
vn -0.0984925 -0.756202 -0.646883
v -0.067486 2 36.7172
vn -0.274642 -0.752797 -0.598221
v 0.119416 2 37.9025
vn -0.504397 -0.619148 0.601863
v 2.18567 3 37.5767
vn 0.0252947 0.831803 0.554494
v 5.80987 3 37.5272
vn -0.0485089 0.771057 0.634916
v 9.49227 3 37.9718
vn -0.0757586 0.76129 0.64397
v 9.57628 3 37.976
vn 0.0169661 0.516406 0.856176
v 17.8657 3 37.8088
vn -0.0370582 0.863074 0.503716
v 23.6562 3 38.6233
vn -0.0886364 0.768233 0.634004
v 23.7109 3 38.6284
vn -0.0327936 0.00167905 0.999461
v 23.7659 3 38.6286
vn 0.0367737 0.524009 0.850919
v 26.9875 3 38.4881
vn -0.0329483 0.849876 0.525951
v 30.2142 3 38.8614
vn -0.0726787 0.76824 0.636022
v 30.2671 3 38.8651
vn -0.0119849 0.00156319 0.999927
v 30.3201 3 38.8642
vn 0.052569 0.518907 0.853213
v 37.0843 3 38.4463
vn -0.008054 0.870433 0.492221
v 40.8637 3 38.7724
vn -0.0524985 0.782734 0.620139
v 40.9255 3 38.7746
vn 0.0341676 0.0084663 0.99938
v 40.9872 3 38.7703
vn 0.13681 0.00212228 0.990595
v 41.0481 3 38.7598
vn 0.23779 0.0419376 0.970411
v 41.1076 3 38.743
vn 0.336662 0.00212228 0.941623
v 41.165 3 38.7202
vn 0.350232 0.539115 0.765958
v 44.9498 3 36.9879
vn 0.152619 0.867545 0.473365
v 47.6236 3 36.3819
vn 0.078153 0.606839 0.790973
v 51.7083 3 36.1492
vn -0.0681036 0.871258 0.486078
v 54.545 3 36.9491
vn -0.2394 0.775382 0.584355
v 57.566 3 38.3679
vn -0.319503 0.766293 0.557416
v 59.0402 3 39.3693
vn -0.328656 0.809351 0.48676
v 59.0883 3 39.3988
vn -0.465956 0.0897711 0.880242
v 59.139 3 39.4236
vn -0.382698 0.00177073 0.923872
v 59.1918 3 39.4436
vn -0.294001 0.0332974 0.955225
v 59.2463 3 39.4585
vn -0.20302 0.00706709 0.979149
v 59.3019 3 39.4682
vn -0.110088 0.00177073 0.99392
v 59.3582 3 39.4727
vn -0.0161485 0.0592278 0.998114
v 59.4147 3 39.4718
vn 0.0527667 0.527162 0.848125
v 70.2508 3 38.7963
vn 0.0157093 0.892603 0.450569
v 73.1057 3 38.8456
vn 0.464051 0.676496 0.571847
v 73.1264 3 37.6458
vn 0.143525 0.760143 -0.633705
v 70.2477 3 37.5961
vn 0.010338 0.763107 -0.646189
v 70.2 3 37.5971
vn -0.0532437 0.515339 -0.855331
v 59.5448 3 38.2614
vn 0.0349626 0.915097 -0.401714
v 58.2011 3 37.3486
vn 0.358555 0.768247 -0.530315
v 58.161 3 37.3236
vn 0.483574 0.00124144 -0.875303
v 58.119 3 37.3018
vn 0.273445 0.765959 -0.581837
v 55.0105 3 35.842
vn 0.271467 0.768236 -0.579758
v 54.9651 3 35.8229
vn 0.336564 0.00134745 -0.94166
v 54.9183 3 35.8076
vn 0.175609 0.763083 -0.621985
v 51.9373 3 34.967
vn 0.170258 0.774628 -0.609068
v 51.8726 3 34.9525
vn 0.145297 0.0097408 -0.98934
v 51.8066 3 34.9453
vn 0.035231 0.00244277 -0.999376
v 51.7403 3 34.9454
vn -0.0478939 0.529018 -0.847258
v 47.5055 3 35.1866
vn -0.0227942 0.919001 -0.393595
v 47.456 3 35.1915
vn -0.153132 0.00137686 -0.988205
v 47.407 3 35.2005
vn -0.142195 0.764791 -0.628391
v 44.6239 3 35.8313
vn -0.142845 0.768255 -0.624002
v 44.5643 3 35.8481
vn -0.336576 0.00212677 -0.941654
v 44.5068 3 35.8709
vn -0.354423 0.523007 -0.775143
v 40.8094 3 37.5633
vn -0.0477809 0.866221 -0.497371
v 37.1432 3 37.2469
vn 0.054484 0.768231 -0.63785
v 37.0989 3 37.2447
vn -0.000134209 0.00109148 -0.999999
v 37.0546 3 37.2458
vn -0.0526399 0.51819 -0.853644
v 30.2992 3 37.6632
vn 0.0119068 0.877622 -0.479206
v 27.078 3 37.2906
vn 0.0728488 0.768235 -0.636009
v 27.0305 3 37.287
vn 0.0225618 0.00125934 -0.999745
v 26.9829 3 37.2871
vn -0.0368882 0.52277 -0.851675
v 23.7687 3 37.4273
vn 0.05621 0.827416 -0.55877
v 17.9852 3 36.6138
vn 0.0887637 0.768229 -0.633991
v 17.9375 3 36.609
vn 0.0464415 0.00127787 -0.99892
v 17.8895 3 36.608
vn -0.0171541 0.51776 -0.855354
v 9.59424 3 36.7754
vn 0.0219378 0.879097 -0.476138
v 5.91378 3 36.331
vn 0.0758889 0.761597 -0.643592
v 5.83366 3 36.3267
vn -0.00834924 0.764704 -0.644328
v 2.12638 3 36.3774
vn -0.0109072 0.761173 -0.648457
v 2.04113 3 36.3847
vn -0.131678 0.521889 -0.842789
v -0.067486 3 36.7172
vn -0.450286 0.844828 -0.288977
v 0.119416 3 37.9025
vn -0.106237 0.499605 0.859714
f 70//70 1//1 71//71
f 69//69 1//1 70//70
f 2//2 69//69 68//68
f 69//69 2//2 1//1
f 1//1 72//72 71//71
f 66//66 5//5 67//67
f 2//2 68//68 67//67
f 67//67 3//3 2//2
f 64//64 66//66 65//65
f 57//57 56//56 58//58
f 13//13 58//58 56//56
f 9//9 63//63 62//62
f 9//9 62//62 60//60
f 61//61 60//60 62//62
f 63//63 5//5 64//64
f 66//66 64//64 5//5
f 13//13 56//56 55//55
f 1//1 73//73 72//72
f 67//67 4//4 3//3
f 4//4 67//67 5//5
f 6//6 8//8 7//7
f 8//8 63//63 9//9
f 6//6 63//63 8//8
f 5//5 63//63 6//6
f 59//59 13//13 12//12
f 59//59 58//58 13//13
f 55//55 14//14 13//13
f 19//19 17//17 14//14
f 15//15 17//17 16//16
f 11//11 10//10 12//12
f 12//12 10//10 59//59
f 15//15 14//14 17//17
f 59//59 10//10 9//9
f 60//60 59//59 9//9
f 14//14 55//55 19//19
f 20//20 52//52 51//51
f 50//50 49//49 51//51
f 21//21 51//51 49//49
f 53//53 52//52 54//54
f 54//54 52//52 20//20
f 20//20 51//51 21//21
f 49//49 22//22 21//21
f 20//20 19//19 55//55
f 49//49 48//48 22//22
f 48//48 47//47 46//46
f 46//46 45//45 48//48
f 44//44 22//22 45//45
f 23//23 44//44 42//42
f 23//23 22//22 44//44
f 42//42 41//41 23//23
f 42//42 44//44 43//43
f 45//45 22//22 48//48
f 24//24 23//23 41//41
f 39//39 24//24 41//41
f 40//40 39//39 41//41
f 25//25 24//24 38//38
f 26//26 28//28 27//27
f 31//31 28//28 26//26
f 32//32 26//26 25//25
f 38//38 24//24 39//39
f 18//18 17//17 19//19
f 38//38 37//37 33//33
f 36//36 35//35 33//33
f 33//33 35//35 34//34
f 36//36 33//33 37//37
f 38//38 33//33 32//32
f 30//30 29//29 31//31
f 28//28 31//31 29//29
f 32//32 31//31 26//26
f 32//32 25//25 38//38
f 55//55 54//54 20//20
f 143//143 144//144 74//74
f 142//142 143//143 74//74
f 75//75 141//141 142//142
f 142//142 74//74 75//75
f 74//74 144//144 145//145
f 139//139 140//140 78//78
f 75//75 140//140 141//141
f 140//140 75//75 76//76
f 137//137 138//138 139//139
f 130//130 131//131 129//129
f 86//86 129//129 131//131
f 82//82 135//135 136//136
f 82//82 133//133 135//135
f 134//134 135//135 133//133
f 136//136 137//137 78//78
f 139//139 78//78 137//137
f 86//86 128//128 129//129
f 74//74 145//145 146//146
f 140//140 76//76 77//77
f 77//77 78//78 140//140
f 79//79 80//80 81//81
f 81//81 82//82 136//136
f 79//79 81//81 136//136
f 78//78 79//79 136//136
f 132//132 85//85 86//86
f 132//132 86//86 131//131
f 128//128 86//86 87//87
f 92//92 87//87 90//90
f 88//88 89//89 90//90
f 84//84 85//85 83//83
f 85//85 132//132 83//83
f 88//88 90//90 87//87
f 132//132 82//82 83//83
f 133//133 82//82 132//132
f 87//87 92//92 128//128
f 93//93 124//124 125//125
f 123//123 124//124 122//122
f 94//94 122//122 124//124
f 126//126 127//127 125//125
f 127//127 93//93 125//125
f 93//93 94//94 124//124
f 122//122 94//94 95//95
f 93//93 128//128 92//92
f 122//122 95//95 121//121
f 121//121 119//119 120//120
f 119//119 121//121 118//118
f 117//117 118//118 95//95
f 96//96 115//115 117//117
f 96//96 117//117 95//95
f 115//115 96//96 114//114
f 115//115 116//116 117//117
f 118//118 121//121 95//95
f 97//97 114//114 96//96
f 112//112 114//114 97//97
f 113//113 114//114 112//112
f 98//98 111//111 97//97
f 99//99 100//100 101//101
f 104//104 99//99 101//101
f 105//105 98//98 99//99
f 111//111 112//112 97//97
f 91//91 92//92 90//90
f 111//111 106//106 110//110
f 109//109 106//106 108//108
f 106//106 107//107 108//108
f 109//109 110//110 106//106
f 111//111 105//105 106//106
f 103//103 104//104 102//102
f 101//101 102//102 104//104
f 105//105 99//99 104//104
f 105//105 111//111 98//98
f 128//128 93//93 127//127
f 1//1 2//2 74//74
f 74//74 2//2 75//75
f 2//2 3//3 75//75
f 75//75 3//3 76//76
f 3//3 4//4 76//76
f 76//76 4//4 77//77
f 4//4 5//5 77//77
f 77//77 5//5 78//78
f 5//5 6//6 78//78
f 78//78 6//6 79//79
f 6//6 7//7 79//79
f 79//79 7//7 80//80
f 7//7 8//8 80//80
f 80//80 8//8 81//81
f 8//8 9//9 81//81
f 81//81 9//9 82//82
f 9//9 10//10 82//82
f 82//82 10//10 83//83
f 10//10 11//11 83//83
f 83//83 11//11 84//84
f 11//11 12//12 84//84
f 84//84 12//12 85//85
f 12//12 13//13 85//85
f 85//85 13//13 86//86
f 13//13 14//14 86//86
f 86//86 14//14 87//87
f 14//14 15//15 87//87
f 87//87 15//15 88//88
f 15//15 16//16 88//88
f 88//88 16//16 89//89
f 16//16 17//17 89//89
f 89//89 17//17 90//90
f 17//17 18//18 90//90
f 90//90 18//18 91//91
f 18//18 19//19 91//91
f 91//91 19//19 92//92
f 19//19 20//20 92//92
f 92//92 20//20 93//93
f 20//20 21//21 93//93
f 93//93 21//21 94//94
f 21//21 22//22 94//94
f 94//94 22//22 95//95
f 22//22 23//23 95//95
f 95//95 23//23 96//96
f 23//23 24//24 96//96
f 96//96 24//24 97//97
f 24//24 25//25 97//97
f 97//97 25//25 98//98
f 25//25 26//26 98//98
f 98//98 26//26 99//99
f 26//26 27//27 99//99
f 99//99 27//27 100//100
f 27//27 28//28 100//100
f 100//100 28//28 101//101
f 28//28 29//29 101//101
f 101//101 29//29 102//102
f 29//29 30//30 102//102
f 102//102 30//30 103//103
f 30//30 31//31 103//103
f 103//103 31//31 104//104
f 31//31 32//32 104//104
f 104//104 32//32 105//105
f 32//32 33//33 105//105
f 105//105 33//33 106//106
f 33//33 34//34 106//106
f 106//106 34//34 107//107
f 34//34 35//35 107//107
f 107//107 35//35 108//108
f 35//35 36//36 108//108
f 108//108 36//36 109//109
f 36//36 37//37 109//109
f 109//109 37//37 110//110
f 37//37 38//38 110//110
f 110//110 38//38 111//111
f 38//38 39//39 111//111
f 111//111 39//39 112//112
f 39//39 40//40 112//112
f 112//112 40//40 113//113
f 40//40 41//41 113//113
f 113//113 41//41 114//114
f 41//41 42//42 114//114
f 114//114 42//42 115//115
f 42//42 43//43 115//115
f 115//115 43//43 116//116
f 43//43 44//44 116//116
f 116//116 44//44 117//117
f 44//44 45//45 117//117
f 117//117 45//45 118//118
f 45//45 46//46 118//118
f 118//118 46//46 119//119
f 46//46 47//47 119//119
f 119//119 47//47 120//120
f 47//47 48//48 120//120
f 120//120 48//48 121//121
f 48//48 49//49 121//121
f 121//121 49//49 122//122
f 49//49 50//50 122//122
f 122//122 50//50 123//123
f 50//50 51//51 123//123
f 123//123 51//51 124//124
f 51//51 52//52 124//124
f 124//124 52//52 125//125
f 52//52 53//53 125//125
f 125//125 53//53 126//126
f 53//53 54//54 126//126
f 126//126 54//54 127//127
f 54//54 55//55 127//127
f 127//127 55//55 128//128
f 55//55 56//56 128//128
f 128//128 56//56 129//129
f 56//56 57//57 129//129
f 129//129 57//57 130//130
f 57//57 58//58 130//130
f 130//130 58//58 131//131
f 58//58 59//59 131//131
f 131//131 59//59 132//132
f 59//59 60//60 132//132
f 132//132 60//60 133//133
f 60//60 61//61 133//133
f 133//133 61//61 134//134
f 61//61 62//62 134//134
f 134//134 62//62 135//135
f 62//62 63//63 135//135
f 135//135 63//63 136//136
f 63//63 64//64 136//136
f 136//136 64//64 137//137
f 64//64 65//65 137//137
f 137//137 65//65 138//138
f 65//65 66//66 138//138
f 138//138 66//66 139//139
f 66//66 67//67 139//139
f 139//139 67//67 140//140
f 67//67 68//68 140//140
f 140//140 68//68 141//141
f 68//68 69//69 141//141
f 141//141 69//69 142//142
f 69//69 70//70 142//142
f 142//142 70//70 143//143
f 70//70 71//71 143//143
f 143//143 71//71 144//144
f 71//71 72//72 144//144
f 144//144 72//72 145//145
f 72//72 73//73 145//145
f 145//145 73//73 146//146
f 73//73 1//1 146//146
f 146//146 1//1 74//74
